<?xml version="1.0" encoding="utf-8" standalone="no"?>
<!DOCTYPE svg PUBLIC "-//W3C//DTD SVG 1.1//EN"
  "http://www.w3.org/Graphics/SVG/1.1/DTD/svg11.dtd">
<svg xmlns:xlink="http://www.w3.org/1999/xlink" width="720pt" height="432pt" viewBox="0 0 720 432" xmlns="http://www.w3.org/2000/svg" version="1.1">
 <metadata>
  <rdf:RDF xmlns:dc="http://purl.org/dc/elements/1.1/" xmlns:cc="http://creativecommons.org/ns#" xmlns:rdf="http://www.w3.org/1999/02/22-rdf-syntax-ns#">
   <cc:Work>
    <dc:type rdf:resource="http://purl.org/dc/dcmitype/StillImage"/>
    <dc:date>2023-11-21T16:31:11.071953</dc:date>
    <dc:format>image/svg+xml</dc:format>
    <dc:creator>
     <cc:Agent>
      <dc:title>Matplotlib v3.8.1, https://matplotlib.org/</dc:title>
     </cc:Agent>
    </dc:creator>
   </cc:Work>
  </rdf:RDF>
 </metadata>
 <defs>
  <style type="text/css">*{stroke-linejoin: round; stroke-linecap: butt}</style>
 </defs>
 <g id="figure_1">
  <g id="patch_1">
   <path d="M 0 432 
L 720 432 
L 720 0 
L 0 0 
z
" style="fill: #ffffff"/>
  </g>
  <g id="axes_1">
   <g id="patch_2">
    <path d="M 63.83 404.12 
L 709.2 404.12 
L 709.2 26.16 
L 63.83 26.16 
z
" style="fill: #ffffff"/>
   </g>
   <g id="matplotlib.axis_1">
    <g id="xtick_1">
     <g id="line2d_1">
      <path d="M 386.515 404.12 
L 386.515 26.16 
" clip-path="url(#pf34781c003)" style="fill: none; stroke-dasharray: 1.85,0.8; stroke-dashoffset: 0; stroke: #b0b0b0; stroke-width: 0.5"/>
     </g>
     <g id="line2d_2">
      <defs>
       <path id="me2cc584790" d="M 0 0 
L 0 3.5 
" style="stroke: #000000; stroke-width: 0.8"/>
      </defs>
      <g>
       <use xlink:href="#me2cc584790" x="386.515" y="404.12" style="stroke: #000000; stroke-width: 0.8"/>
      </g>
     </g>
     <g id="text_1">
      <!-- 1 -->
      <g transform="translate(383.33375 418.718437) scale(0.1 -0.1)">
       <defs>
        <path id="DejaVuSans-31" d="M 794 531 
L 1825 531 
L 1825 4091 
L 703 3866 
L 703 4441 
L 1819 4666 
L 2450 4666 
L 2450 531 
L 3481 531 
L 3481 0 
L 794 0 
L 794 531 
z
" transform="scale(0.015625)"/>
       </defs>
       <use xlink:href="#DejaVuSans-31"/>
      </g>
     </g>
    </g>
   </g>
   <g id="matplotlib.axis_2">
    <g id="ytick_1">
     <g id="line2d_3">
      <path d="M 63.83 368.282041 
L 709.2 368.282041 
" clip-path="url(#pf34781c003)" style="fill: none; stroke-dasharray: 1.85,0.8; stroke-dashoffset: 0; stroke: #b0b0b0; stroke-width: 0.5"/>
     </g>
     <g id="line2d_4">
      <defs>
       <path id="m5fbcac5d88" d="M 0 0 
L -3.5 0 
" style="stroke: #000000; stroke-width: 0.8"/>
      </defs>
      <g>
       <use xlink:href="#m5fbcac5d88" x="63.83" y="368.282041" style="stroke: #000000; stroke-width: 0.8"/>
      </g>
     </g>
     <g id="text_2">
      <!-- 22500 -->
      <g transform="translate(25.0175 372.081259) scale(0.1 -0.1)">
       <defs>
        <path id="DejaVuSans-32" d="M 1228 531 
L 3431 531 
L 3431 0 
L 469 0 
L 469 531 
Q 828 903 1448 1529 
Q 2069 2156 2228 2338 
Q 2531 2678 2651 2914 
Q 2772 3150 2772 3378 
Q 2772 3750 2511 3984 
Q 2250 4219 1831 4219 
Q 1534 4219 1204 4116 
Q 875 4013 500 3803 
L 500 4441 
Q 881 4594 1212 4672 
Q 1544 4750 1819 4750 
Q 2544 4750 2975 4387 
Q 3406 4025 3406 3419 
Q 3406 3131 3298 2873 
Q 3191 2616 2906 2266 
Q 2828 2175 2409 1742 
Q 1991 1309 1228 531 
z
" transform="scale(0.015625)"/>
        <path id="DejaVuSans-35" d="M 691 4666 
L 3169 4666 
L 3169 4134 
L 1269 4134 
L 1269 2991 
Q 1406 3038 1543 3061 
Q 1681 3084 1819 3084 
Q 2600 3084 3056 2656 
Q 3513 2228 3513 1497 
Q 3513 744 3044 326 
Q 2575 -91 1722 -91 
Q 1428 -91 1123 -41 
Q 819 9 494 109 
L 494 744 
Q 775 591 1075 516 
Q 1375 441 1709 441 
Q 2250 441 2565 725 
Q 2881 1009 2881 1497 
Q 2881 1984 2565 2268 
Q 2250 2553 1709 2553 
Q 1456 2553 1204 2497 
Q 953 2441 691 2322 
L 691 4666 
z
" transform="scale(0.015625)"/>
        <path id="DejaVuSans-30" d="M 2034 4250 
Q 1547 4250 1301 3770 
Q 1056 3291 1056 2328 
Q 1056 1369 1301 889 
Q 1547 409 2034 409 
Q 2525 409 2770 889 
Q 3016 1369 3016 2328 
Q 3016 3291 2770 3770 
Q 2525 4250 2034 4250 
z
M 2034 4750 
Q 2819 4750 3233 4129 
Q 3647 3509 3647 2328 
Q 3647 1150 3233 529 
Q 2819 -91 2034 -91 
Q 1250 -91 836 529 
Q 422 1150 422 2328 
Q 422 3509 836 4129 
Q 1250 4750 2034 4750 
z
" transform="scale(0.015625)"/>
       </defs>
       <use xlink:href="#DejaVuSans-32"/>
       <use xlink:href="#DejaVuSans-32" x="63.623047"/>
       <use xlink:href="#DejaVuSans-35" x="127.246094"/>
       <use xlink:href="#DejaVuSans-30" x="190.869141"/>
       <use xlink:href="#DejaVuSans-30" x="254.492188"/>
      </g>
     </g>
    </g>
    <g id="ytick_2">
     <g id="line2d_5">
      <path d="M 63.83 320.939031 
L 709.2 320.939031 
" clip-path="url(#pf34781c003)" style="fill: none; stroke-dasharray: 1.85,0.8; stroke-dashoffset: 0; stroke: #b0b0b0; stroke-width: 0.5"/>
     </g>
     <g id="line2d_6">
      <g>
       <use xlink:href="#m5fbcac5d88" x="63.83" y="320.939031" style="stroke: #000000; stroke-width: 0.8"/>
      </g>
     </g>
     <g id="text_3">
      <!-- 25000 -->
      <g transform="translate(25.0175 324.73825) scale(0.1 -0.1)">
       <use xlink:href="#DejaVuSans-32"/>
       <use xlink:href="#DejaVuSans-35" x="63.623047"/>
       <use xlink:href="#DejaVuSans-30" x="127.246094"/>
       <use xlink:href="#DejaVuSans-30" x="190.869141"/>
       <use xlink:href="#DejaVuSans-30" x="254.492188"/>
      </g>
     </g>
    </g>
    <g id="ytick_3">
     <g id="line2d_7">
      <path d="M 63.83 273.596021 
L 709.2 273.596021 
" clip-path="url(#pf34781c003)" style="fill: none; stroke-dasharray: 1.85,0.8; stroke-dashoffset: 0; stroke: #b0b0b0; stroke-width: 0.5"/>
     </g>
     <g id="line2d_8">
      <g>
       <use xlink:href="#m5fbcac5d88" x="63.83" y="273.596021" style="stroke: #000000; stroke-width: 0.8"/>
      </g>
     </g>
     <g id="text_4">
      <!-- 27500 -->
      <g transform="translate(25.0175 277.39524) scale(0.1 -0.1)">
       <defs>
        <path id="DejaVuSans-37" d="M 525 4666 
L 3525 4666 
L 3525 4397 
L 1831 0 
L 1172 0 
L 2766 4134 
L 525 4134 
L 525 4666 
z
" transform="scale(0.015625)"/>
       </defs>
       <use xlink:href="#DejaVuSans-32"/>
       <use xlink:href="#DejaVuSans-37" x="63.623047"/>
       <use xlink:href="#DejaVuSans-35" x="127.246094"/>
       <use xlink:href="#DejaVuSans-30" x="190.869141"/>
       <use xlink:href="#DejaVuSans-30" x="254.492188"/>
      </g>
     </g>
    </g>
    <g id="ytick_4">
     <g id="line2d_9">
      <path d="M 63.83 226.253012 
L 709.2 226.253012 
" clip-path="url(#pf34781c003)" style="fill: none; stroke-dasharray: 1.85,0.8; stroke-dashoffset: 0; stroke: #b0b0b0; stroke-width: 0.5"/>
     </g>
     <g id="line2d_10">
      <g>
       <use xlink:href="#m5fbcac5d88" x="63.83" y="226.253012" style="stroke: #000000; stroke-width: 0.8"/>
      </g>
     </g>
     <g id="text_5">
      <!-- 30000 -->
      <g transform="translate(25.0175 230.05223) scale(0.1 -0.1)">
       <defs>
        <path id="DejaVuSans-33" d="M 2597 2516 
Q 3050 2419 3304 2112 
Q 3559 1806 3559 1356 
Q 3559 666 3084 287 
Q 2609 -91 1734 -91 
Q 1441 -91 1130 -33 
Q 819 25 488 141 
L 488 750 
Q 750 597 1062 519 
Q 1375 441 1716 441 
Q 2309 441 2620 675 
Q 2931 909 2931 1356 
Q 2931 1769 2642 2001 
Q 2353 2234 1838 2234 
L 1294 2234 
L 1294 2753 
L 1863 2753 
Q 2328 2753 2575 2939 
Q 2822 3125 2822 3475 
Q 2822 3834 2567 4026 
Q 2313 4219 1838 4219 
Q 1578 4219 1281 4162 
Q 984 4106 628 3988 
L 628 4550 
Q 988 4650 1302 4700 
Q 1616 4750 1894 4750 
Q 2613 4750 3031 4423 
Q 3450 4097 3450 3541 
Q 3450 3153 3228 2886 
Q 3006 2619 2597 2516 
z
" transform="scale(0.015625)"/>
       </defs>
       <use xlink:href="#DejaVuSans-33"/>
       <use xlink:href="#DejaVuSans-30" x="63.623047"/>
       <use xlink:href="#DejaVuSans-30" x="127.246094"/>
       <use xlink:href="#DejaVuSans-30" x="190.869141"/>
       <use xlink:href="#DejaVuSans-30" x="254.492188"/>
      </g>
     </g>
    </g>
    <g id="ytick_5">
     <g id="line2d_11">
      <path d="M 63.83 178.910002 
L 709.2 178.910002 
" clip-path="url(#pf34781c003)" style="fill: none; stroke-dasharray: 1.85,0.8; stroke-dashoffset: 0; stroke: #b0b0b0; stroke-width: 0.5"/>
     </g>
     <g id="line2d_12">
      <g>
       <use xlink:href="#m5fbcac5d88" x="63.83" y="178.910002" style="stroke: #000000; stroke-width: 0.8"/>
      </g>
     </g>
     <g id="text_6">
      <!-- 32500 -->
      <g transform="translate(25.0175 182.709221) scale(0.1 -0.1)">
       <use xlink:href="#DejaVuSans-33"/>
       <use xlink:href="#DejaVuSans-32" x="63.623047"/>
       <use xlink:href="#DejaVuSans-35" x="127.246094"/>
       <use xlink:href="#DejaVuSans-30" x="190.869141"/>
       <use xlink:href="#DejaVuSans-30" x="254.492188"/>
      </g>
     </g>
    </g>
    <g id="ytick_6">
     <g id="line2d_13">
      <path d="M 63.83 131.566992 
L 709.2 131.566992 
" clip-path="url(#pf34781c003)" style="fill: none; stroke-dasharray: 1.85,0.8; stroke-dashoffset: 0; stroke: #b0b0b0; stroke-width: 0.5"/>
     </g>
     <g id="line2d_14">
      <g>
       <use xlink:href="#m5fbcac5d88" x="63.83" y="131.566992" style="stroke: #000000; stroke-width: 0.8"/>
      </g>
     </g>
     <g id="text_7">
      <!-- 35000 -->
      <g transform="translate(25.0175 135.366211) scale(0.1 -0.1)">
       <use xlink:href="#DejaVuSans-33"/>
       <use xlink:href="#DejaVuSans-35" x="63.623047"/>
       <use xlink:href="#DejaVuSans-30" x="127.246094"/>
       <use xlink:href="#DejaVuSans-30" x="190.869141"/>
       <use xlink:href="#DejaVuSans-30" x="254.492188"/>
      </g>
     </g>
    </g>
    <g id="ytick_7">
     <g id="line2d_15">
      <path d="M 63.83 84.223983 
L 709.2 84.223983 
" clip-path="url(#pf34781c003)" style="fill: none; stroke-dasharray: 1.85,0.8; stroke-dashoffset: 0; stroke: #b0b0b0; stroke-width: 0.5"/>
     </g>
     <g id="line2d_16">
      <g>
       <use xlink:href="#m5fbcac5d88" x="63.83" y="84.223983" style="stroke: #000000; stroke-width: 0.8"/>
      </g>
     </g>
     <g id="text_8">
      <!-- 37500 -->
      <g transform="translate(25.0175 88.023201) scale(0.1 -0.1)">
       <use xlink:href="#DejaVuSans-33"/>
       <use xlink:href="#DejaVuSans-37" x="63.623047"/>
       <use xlink:href="#DejaVuSans-35" x="127.246094"/>
       <use xlink:href="#DejaVuSans-30" x="190.869141"/>
       <use xlink:href="#DejaVuSans-30" x="254.492188"/>
      </g>
     </g>
    </g>
    <g id="ytick_8">
     <g id="line2d_17">
      <path d="M 63.83 36.880973 
L 709.2 36.880973 
" clip-path="url(#pf34781c003)" style="fill: none; stroke-dasharray: 1.85,0.8; stroke-dashoffset: 0; stroke: #b0b0b0; stroke-width: 0.5"/>
     </g>
     <g id="line2d_18">
      <g>
       <use xlink:href="#m5fbcac5d88" x="63.83" y="36.880973" style="stroke: #000000; stroke-width: 0.8"/>
      </g>
     </g>
     <g id="text_9">
      <!-- 40000 -->
      <g transform="translate(25.0175 40.680192) scale(0.1 -0.1)">
       <defs>
        <path id="DejaVuSans-34" d="M 2419 4116 
L 825 1625 
L 2419 1625 
L 2419 4116 
z
M 2253 4666 
L 3047 4666 
L 3047 1625 
L 3713 1625 
L 3713 1100 
L 3047 1100 
L 3047 0 
L 2419 0 
L 2419 1100 
L 313 1100 
L 313 1709 
L 2253 4666 
z
" transform="scale(0.015625)"/>
       </defs>
       <use xlink:href="#DejaVuSans-34"/>
       <use xlink:href="#DejaVuSans-30" x="63.623047"/>
       <use xlink:href="#DejaVuSans-30" x="127.246094"/>
       <use xlink:href="#DejaVuSans-30" x="190.869141"/>
       <use xlink:href="#DejaVuSans-30" x="254.492188"/>
      </g>
     </g>
    </g>
    <g id="text_10">
     <!-- Goodput (kbps) -->
     <g transform="translate(18.937813 253.949375) rotate(-90) scale(0.1 -0.1)">
      <defs>
       <path id="DejaVuSans-47" d="M 3809 666 
L 3809 1919 
L 2778 1919 
L 2778 2438 
L 4434 2438 
L 4434 434 
Q 4069 175 3628 42 
Q 3188 -91 2688 -91 
Q 1594 -91 976 548 
Q 359 1188 359 2328 
Q 359 3472 976 4111 
Q 1594 4750 2688 4750 
Q 3144 4750 3555 4637 
Q 3966 4525 4313 4306 
L 4313 3634 
Q 3963 3931 3569 4081 
Q 3175 4231 2741 4231 
Q 1884 4231 1454 3753 
Q 1025 3275 1025 2328 
Q 1025 1384 1454 906 
Q 1884 428 2741 428 
Q 3075 428 3337 486 
Q 3600 544 3809 666 
z
" transform="scale(0.015625)"/>
       <path id="DejaVuSans-6f" d="M 1959 3097 
Q 1497 3097 1228 2736 
Q 959 2375 959 1747 
Q 959 1119 1226 758 
Q 1494 397 1959 397 
Q 2419 397 2687 759 
Q 2956 1122 2956 1747 
Q 2956 2369 2687 2733 
Q 2419 3097 1959 3097 
z
M 1959 3584 
Q 2709 3584 3137 3096 
Q 3566 2609 3566 1747 
Q 3566 888 3137 398 
Q 2709 -91 1959 -91 
Q 1206 -91 779 398 
Q 353 888 353 1747 
Q 353 2609 779 3096 
Q 1206 3584 1959 3584 
z
" transform="scale(0.015625)"/>
       <path id="DejaVuSans-64" d="M 2906 2969 
L 2906 4863 
L 3481 4863 
L 3481 0 
L 2906 0 
L 2906 525 
Q 2725 213 2448 61 
Q 2172 -91 1784 -91 
Q 1150 -91 751 415 
Q 353 922 353 1747 
Q 353 2572 751 3078 
Q 1150 3584 1784 3584 
Q 2172 3584 2448 3432 
Q 2725 3281 2906 2969 
z
M 947 1747 
Q 947 1113 1208 752 
Q 1469 391 1925 391 
Q 2381 391 2643 752 
Q 2906 1113 2906 1747 
Q 2906 2381 2643 2742 
Q 2381 3103 1925 3103 
Q 1469 3103 1208 2742 
Q 947 2381 947 1747 
z
" transform="scale(0.015625)"/>
       <path id="DejaVuSans-70" d="M 1159 525 
L 1159 -1331 
L 581 -1331 
L 581 3500 
L 1159 3500 
L 1159 2969 
Q 1341 3281 1617 3432 
Q 1894 3584 2278 3584 
Q 2916 3584 3314 3078 
Q 3713 2572 3713 1747 
Q 3713 922 3314 415 
Q 2916 -91 2278 -91 
Q 1894 -91 1617 61 
Q 1341 213 1159 525 
z
M 3116 1747 
Q 3116 2381 2855 2742 
Q 2594 3103 2138 3103 
Q 1681 3103 1420 2742 
Q 1159 2381 1159 1747 
Q 1159 1113 1420 752 
Q 1681 391 2138 391 
Q 2594 391 2855 752 
Q 3116 1113 3116 1747 
z
" transform="scale(0.015625)"/>
       <path id="DejaVuSans-75" d="M 544 1381 
L 544 3500 
L 1119 3500 
L 1119 1403 
Q 1119 906 1312 657 
Q 1506 409 1894 409 
Q 2359 409 2629 706 
Q 2900 1003 2900 1516 
L 2900 3500 
L 3475 3500 
L 3475 0 
L 2900 0 
L 2900 538 
Q 2691 219 2414 64 
Q 2138 -91 1772 -91 
Q 1169 -91 856 284 
Q 544 659 544 1381 
z
M 1991 3584 
L 1991 3584 
z
" transform="scale(0.015625)"/>
       <path id="DejaVuSans-74" d="M 1172 4494 
L 1172 3500 
L 2356 3500 
L 2356 3053 
L 1172 3053 
L 1172 1153 
Q 1172 725 1289 603 
Q 1406 481 1766 481 
L 2356 481 
L 2356 0 
L 1766 0 
Q 1100 0 847 248 
Q 594 497 594 1153 
L 594 3053 
L 172 3053 
L 172 3500 
L 594 3500 
L 594 4494 
L 1172 4494 
z
" transform="scale(0.015625)"/>
       <path id="DejaVuSans-20" transform="scale(0.015625)"/>
       <path id="DejaVuSans-28" d="M 1984 4856 
Q 1566 4138 1362 3434 
Q 1159 2731 1159 2009 
Q 1159 1288 1364 580 
Q 1569 -128 1984 -844 
L 1484 -844 
Q 1016 -109 783 600 
Q 550 1309 550 2009 
Q 550 2706 781 3412 
Q 1013 4119 1484 4856 
L 1984 4856 
z
" transform="scale(0.015625)"/>
       <path id="DejaVuSans-6b" d="M 581 4863 
L 1159 4863 
L 1159 1991 
L 2875 3500 
L 3609 3500 
L 1753 1863 
L 3688 0 
L 2938 0 
L 1159 1709 
L 1159 0 
L 581 0 
L 581 4863 
z
" transform="scale(0.015625)"/>
       <path id="DejaVuSans-62" d="M 3116 1747 
Q 3116 2381 2855 2742 
Q 2594 3103 2138 3103 
Q 1681 3103 1420 2742 
Q 1159 2381 1159 1747 
Q 1159 1113 1420 752 
Q 1681 391 2138 391 
Q 2594 391 2855 752 
Q 3116 1113 3116 1747 
z
M 1159 2969 
Q 1341 3281 1617 3432 
Q 1894 3584 2278 3584 
Q 2916 3584 3314 3078 
Q 3713 2572 3713 1747 
Q 3713 922 3314 415 
Q 2916 -91 2278 -91 
Q 1894 -91 1617 61 
Q 1341 213 1159 525 
L 1159 0 
L 581 0 
L 581 4863 
L 1159 4863 
L 1159 2969 
z
" transform="scale(0.015625)"/>
       <path id="DejaVuSans-73" d="M 2834 3397 
L 2834 2853 
Q 2591 2978 2328 3040 
Q 2066 3103 1784 3103 
Q 1356 3103 1142 2972 
Q 928 2841 928 2578 
Q 928 2378 1081 2264 
Q 1234 2150 1697 2047 
L 1894 2003 
Q 2506 1872 2764 1633 
Q 3022 1394 3022 966 
Q 3022 478 2636 193 
Q 2250 -91 1575 -91 
Q 1294 -91 989 -36 
Q 684 19 347 128 
L 347 722 
Q 666 556 975 473 
Q 1284 391 1588 391 
Q 1994 391 2212 530 
Q 2431 669 2431 922 
Q 2431 1156 2273 1281 
Q 2116 1406 1581 1522 
L 1381 1569 
Q 847 1681 609 1914 
Q 372 2147 372 2553 
Q 372 3047 722 3315 
Q 1072 3584 1716 3584 
Q 2034 3584 2315 3537 
Q 2597 3491 2834 3397 
z
" transform="scale(0.015625)"/>
       <path id="DejaVuSans-29" d="M 513 4856 
L 1013 4856 
Q 1481 4119 1714 3412 
Q 1947 2706 1947 2009 
Q 1947 1309 1714 600 
Q 1481 -109 1013 -844 
L 513 -844 
Q 928 -128 1133 580 
Q 1338 1288 1338 2009 
Q 1338 2731 1133 3434 
Q 928 4138 513 4856 
z
" transform="scale(0.015625)"/>
      </defs>
      <use xlink:href="#DejaVuSans-47"/>
      <use xlink:href="#DejaVuSans-6f" x="77.490234"/>
      <use xlink:href="#DejaVuSans-6f" x="138.671875"/>
      <use xlink:href="#DejaVuSans-64" x="199.853516"/>
      <use xlink:href="#DejaVuSans-70" x="263.330078"/>
      <use xlink:href="#DejaVuSans-75" x="326.806641"/>
      <use xlink:href="#DejaVuSans-74" x="390.185547"/>
      <use xlink:href="#DejaVuSans-20" x="429.394531"/>
      <use xlink:href="#DejaVuSans-28" x="461.181641"/>
      <use xlink:href="#DejaVuSans-6b" x="500.195312"/>
      <use xlink:href="#DejaVuSans-62" x="558.105469"/>
      <use xlink:href="#DejaVuSans-70" x="621.582031"/>
      <use xlink:href="#DejaVuSans-73" x="685.058594"/>
      <use xlink:href="#DejaVuSans-29" x="737.158203"/>
     </g>
    </g>
   </g>
   <g id="patch_3">
    <path d="M 338.11225 154.209605 
L 434.91775 154.209605 
L 434.91775 104.008193 
L 338.11225 104.008193 
L 338.11225 154.209605 
z
" clip-path="url(#pf34781c003)" style="fill: #1f77b4; stroke: #000000; stroke-linejoin: miter"/>
   </g>
   <g id="line2d_19">
    <path d="M 386.515 154.209605 
L 386.515 228.148646 
" clip-path="url(#pf34781c003)" style="fill: none; stroke: #000000; stroke-linecap: square"/>
   </g>
   <g id="line2d_20">
    <path d="M 386.515 104.008193 
L 386.515 43.34 
" clip-path="url(#pf34781c003)" style="fill: none; stroke: #000000; stroke-linecap: square"/>
   </g>
   <g id="line2d_21">
    <path d="M 362.313625 228.148646 
L 410.716375 228.148646 
" clip-path="url(#pf34781c003)" style="fill: none; stroke: #000000; stroke-linecap: square"/>
   </g>
   <g id="line2d_22">
    <path d="M 362.313625 43.34 
L 410.716375 43.34 
" clip-path="url(#pf34781c003)" style="fill: none; stroke: #000000; stroke-linecap: square"/>
   </g>
   <g id="line2d_23">
    <defs>
     <path id="m7927530210" d="M 0 3 
C 0.795609 3 1.55874 2.683901 2.12132 2.12132 
C 2.683901 1.55874 3 0.795609 3 0 
C 3 -0.795609 2.683901 -1.55874 2.12132 -2.12132 
C 1.55874 -2.683901 0.795609 -3 0 -3 
C -0.795609 -3 -1.55874 -2.683901 -2.12132 -2.12132 
C -2.683901 -1.55874 -3 -0.795609 -3 0 
C -3 0.795609 -2.683901 1.55874 -2.12132 2.12132 
C -1.55874 2.683901 -0.795609 3 0 3 
z
" style="stroke: #000000"/>
    </defs>
    <g clip-path="url(#pf34781c003)">
     <use xlink:href="#m7927530210" x="386.515" y="308.431267" style="fill-opacity: 0; stroke: #000000"/>
     <use xlink:href="#m7927530210" x="386.515" y="333.651483" style="fill-opacity: 0; stroke: #000000"/>
     <use xlink:href="#m7927530210" x="386.515" y="323.939262" style="fill-opacity: 0; stroke: #000000"/>
     <use xlink:href="#m7927530210" x="386.515" y="297.878233" style="fill-opacity: 0; stroke: #000000"/>
     <use xlink:href="#m7927530210" x="386.515" y="308.609578" style="fill-opacity: 0; stroke: #000000"/>
     <use xlink:href="#m7927530210" x="386.515" y="288.634112" style="fill-opacity: 0; stroke: #000000"/>
     <use xlink:href="#m7927530210" x="386.515" y="302.924479" style="fill-opacity: 0; stroke: #000000"/>
     <use xlink:href="#m7927530210" x="386.515" y="291.833051" style="fill-opacity: 0; stroke: #000000"/>
     <use xlink:href="#m7927530210" x="386.515" y="324.828885" style="fill-opacity: 0; stroke: #000000"/>
     <use xlink:href="#m7927530210" x="386.515" y="299.034986" style="fill-opacity: 0; stroke: #000000"/>
     <use xlink:href="#m7927530210" x="386.515" y="314.159423" style="fill-opacity: 0; stroke: #000000"/>
     <use xlink:href="#m7927530210" x="386.515" y="287.081454" style="fill-opacity: 0; stroke: #000000"/>
     <use xlink:href="#m7927530210" x="386.515" y="386.94" style="fill-opacity: 0; stroke: #000000"/>
     <use xlink:href="#m7927530210" x="386.515" y="313.173633" style="fill-opacity: 0; stroke: #000000"/>
     <use xlink:href="#m7927530210" x="386.515" y="284.200293" style="fill-opacity: 0; stroke: #000000"/>
     <use xlink:href="#m7927530210" x="386.515" y="320.900481" style="fill-opacity: 0; stroke: #000000"/>
     <use xlink:href="#m7927530210" x="386.515" y="234.046134" style="fill-opacity: 0; stroke: #000000"/>
     <use xlink:href="#m7927530210" x="386.515" y="332.177119" style="fill-opacity: 0; stroke: #000000"/>
     <use xlink:href="#m7927530210" x="386.515" y="235.866575" style="fill-opacity: 0; stroke: #000000"/>
     <use xlink:href="#m7927530210" x="386.515" y="296.251047" style="fill-opacity: 0; stroke: #000000"/>
     <use xlink:href="#m7927530210" x="386.515" y="288.560683" style="fill-opacity: 0; stroke: #000000"/>
     <use xlink:href="#m7927530210" x="386.515" y="257.918265" style="fill-opacity: 0; stroke: #000000"/>
     <use xlink:href="#m7927530210" x="386.515" y="243.027936" style="fill-opacity: 0; stroke: #000000"/>
     <use xlink:href="#m7927530210" x="386.515" y="302.55369" style="fill-opacity: 0; stroke: #000000"/>
     <use xlink:href="#m7927530210" x="386.515" y="293.735902" style="fill-opacity: 0; stroke: #000000"/>
     <use xlink:href="#m7927530210" x="386.515" y="264.807341" style="fill-opacity: 0; stroke: #000000"/>
     <use xlink:href="#m7927530210" x="386.515" y="320.489901" style="fill-opacity: 0; stroke: #000000"/>
     <use xlink:href="#m7927530210" x="386.515" y="300.576537" style="fill-opacity: 0; stroke: #000000"/>
     <use xlink:href="#m7927530210" x="386.515" y="313.083391" style="fill-opacity: 0; stroke: #000000"/>
     <use xlink:href="#m7927530210" x="386.515" y="260.003034" style="fill-opacity: 0; stroke: #000000"/>
     <use xlink:href="#m7927530210" x="386.515" y="229.986895" style="fill-opacity: 0; stroke: #000000"/>
     <use xlink:href="#m7927530210" x="386.515" y="307.724018" style="fill-opacity: 0; stroke: #000000"/>
     <use xlink:href="#m7927530210" x="386.515" y="303.88513" style="fill-opacity: 0; stroke: #000000"/>
     <use xlink:href="#m7927530210" x="386.515" y="273.90111" style="fill-opacity: 0; stroke: #000000"/>
     <use xlink:href="#m7927530210" x="386.515" y="290.000725" style="fill-opacity: 0; stroke: #000000"/>
     <use xlink:href="#m7927530210" x="386.515" y="310.722359" style="fill-opacity: 0; stroke: #000000"/>
     <use xlink:href="#m7927530210" x="386.515" y="303.865291" style="fill-opacity: 0; stroke: #000000"/>
     <use xlink:href="#m7927530210" x="386.515" y="275.914159" style="fill-opacity: 0; stroke: #000000"/>
     <use xlink:href="#m7927530210" x="386.515" y="321.093449" style="fill-opacity: 0; stroke: #000000"/>
     <use xlink:href="#m7927530210" x="386.515" y="237.704878" style="fill-opacity: 0; stroke: #000000"/>
     <use xlink:href="#m7927530210" x="386.515" y="340.647527" style="fill-opacity: 0; stroke: #000000"/>
     <use xlink:href="#m7927530210" x="386.515" y="236.643261" style="fill-opacity: 0; stroke: #000000"/>
     <use xlink:href="#m7927530210" x="386.515" y="345.396549" style="fill-opacity: 0; stroke: #000000"/>
     <use xlink:href="#m7927530210" x="386.515" y="294.383669" style="fill-opacity: 0; stroke: #000000"/>
     <use xlink:href="#m7927530210" x="386.515" y="306.932909" style="fill-opacity: 0; stroke: #000000"/>
     <use xlink:href="#m7927530210" x="386.515" y="327.067712" style="fill-opacity: 0; stroke: #000000"/>
     <use xlink:href="#m7927530210" x="386.515" y="298.044833" style="fill-opacity: 0; stroke: #000000"/>
     <use xlink:href="#m7927530210" x="386.515" y="329.339067" style="fill-opacity: 0; stroke: #000000"/>
     <use xlink:href="#m7927530210" x="386.515" y="315.385958" style="fill-opacity: 0; stroke: #000000"/>
     <use xlink:href="#m7927530210" x="386.515" y="340.067907" style="fill-opacity: 0; stroke: #000000"/>
     <use xlink:href="#m7927530210" x="386.515" y="254.945955" style="fill-opacity: 0; stroke: #000000"/>
     <use xlink:href="#m7927530210" x="386.515" y="246.688921" style="fill-opacity: 0; stroke: #000000"/>
     <use xlink:href="#m7927530210" x="386.515" y="260.464057" style="fill-opacity: 0; stroke: #000000"/>
     <use xlink:href="#m7927530210" x="386.515" y="236.943668" style="fill-opacity: 0; stroke: #000000"/>
     <use xlink:href="#m7927530210" x="386.515" y="306.668484" style="fill-opacity: 0; stroke: #000000"/>
     <use xlink:href="#m7927530210" x="386.515" y="309.970076" style="fill-opacity: 0; stroke: #000000"/>
     <use xlink:href="#m7927530210" x="386.515" y="295.806753" style="fill-opacity: 0; stroke: #000000"/>
     <use xlink:href="#m7927530210" x="386.515" y="336.969724" style="fill-opacity: 0; stroke: #000000"/>
     <use xlink:href="#m7927530210" x="386.515" y="232.640769" style="fill-opacity: 0; stroke: #000000"/>
     <use xlink:href="#m7927530210" x="386.515" y="262.165107" style="fill-opacity: 0; stroke: #000000"/>
     <use xlink:href="#m7927530210" x="386.515" y="277.48907" style="fill-opacity: 0; stroke: #000000"/>
     <use xlink:href="#m7927530210" x="386.515" y="279.964536" style="fill-opacity: 0; stroke: #000000"/>
     <use xlink:href="#m7927530210" x="386.515" y="265.666018" style="fill-opacity: 0; stroke: #000000"/>
     <use xlink:href="#m7927530210" x="386.515" y="263.533063" style="fill-opacity: 0; stroke: #000000"/>
     <use xlink:href="#m7927530210" x="386.515" y="250.803138" style="fill-opacity: 0; stroke: #000000"/>
     <use xlink:href="#m7927530210" x="386.515" y="237.88701" style="fill-opacity: 0; stroke: #000000"/>
     <use xlink:href="#m7927530210" x="386.515" y="243.202012" style="fill-opacity: 0; stroke: #000000"/>
     <use xlink:href="#m7927530210" x="386.515" y="267.840545" style="fill-opacity: 0; stroke: #000000"/>
     <use xlink:href="#m7927530210" x="386.515" y="263.032723" style="fill-opacity: 0; stroke: #000000"/>
     <use xlink:href="#m7927530210" x="386.515" y="243.593759" style="fill-opacity: 0; stroke: #000000"/>
     <use xlink:href="#m7927530210" x="386.515" y="234.765009" style="fill-opacity: 0; stroke: #000000"/>
     <use xlink:href="#m7927530210" x="386.515" y="262.223226" style="fill-opacity: 0; stroke: #000000"/>
     <use xlink:href="#m7927530210" x="386.515" y="237.122975" style="fill-opacity: 0; stroke: #000000"/>
     <use xlink:href="#m7927530210" x="386.515" y="247.948657" style="fill-opacity: 0; stroke: #000000"/>
     <use xlink:href="#m7927530210" x="386.515" y="257.309614" style="fill-opacity: 0; stroke: #000000"/>
     <use xlink:href="#m7927530210" x="386.515" y="229.716274" style="fill-opacity: 0; stroke: #000000"/>
     <use xlink:href="#m7927530210" x="386.515" y="246.193576" style="fill-opacity: 0; stroke: #000000"/>
     <use xlink:href="#m7927530210" x="386.515" y="247.323565" style="fill-opacity: 0; stroke: #000000"/>
     <use xlink:href="#m7927530210" x="386.515" y="246.458464" style="fill-opacity: 0; stroke: #000000"/>
     <use xlink:href="#m7927530210" x="386.515" y="255.377707" style="fill-opacity: 0; stroke: #000000"/>
     <use xlink:href="#m7927530210" x="386.515" y="253.430745" style="fill-opacity: 0; stroke: #000000"/>
     <use xlink:href="#m7927530210" x="386.515" y="249.728577" style="fill-opacity: 0; stroke: #000000"/>
     <use xlink:href="#m7927530210" x="386.515" y="256.35323" style="fill-opacity: 0; stroke: #000000"/>
     <use xlink:href="#m7927530210" x="386.515" y="272.386052" style="fill-opacity: 0; stroke: #000000"/>
     <use xlink:href="#m7927530210" x="386.515" y="248.223681" style="fill-opacity: 0; stroke: #000000"/>
     <use xlink:href="#m7927530210" x="386.515" y="242.330146" style="fill-opacity: 0; stroke: #000000"/>
     <use xlink:href="#m7927530210" x="386.515" y="238.009794" style="fill-opacity: 0; stroke: #000000"/>
     <use xlink:href="#m7927530210" x="386.515" y="231.448245" style="fill-opacity: 0; stroke: #000000"/>
     <use xlink:href="#m7927530210" x="386.515" y="240.431158" style="fill-opacity: 0; stroke: #000000"/>
     <use xlink:href="#m7927530210" x="386.515" y="267.390605" style="fill-opacity: 0; stroke: #000000"/>
     <use xlink:href="#m7927530210" x="386.515" y="269.442436" style="fill-opacity: 0; stroke: #000000"/>
     <use xlink:href="#m7927530210" x="386.515" y="268.009598" style="fill-opacity: 0; stroke: #000000"/>
     <use xlink:href="#m7927530210" x="386.515" y="267.388682" style="fill-opacity: 0; stroke: #000000"/>
     <use xlink:href="#m7927530210" x="386.515" y="247.500022" style="fill-opacity: 0; stroke: #000000"/>
     <use xlink:href="#m7927530210" x="386.515" y="253.497785" style="fill-opacity: 0; stroke: #000000"/>
     <use xlink:href="#m7927530210" x="386.515" y="256.248618" style="fill-opacity: 0; stroke: #000000"/>
     <use xlink:href="#m7927530210" x="386.515" y="265.238614" style="fill-opacity: 0; stroke: #000000"/>
     <use xlink:href="#m7927530210" x="386.515" y="259.649949" style="fill-opacity: 0; stroke: #000000"/>
     <use xlink:href="#m7927530210" x="386.515" y="272.593676" style="fill-opacity: 0; stroke: #000000"/>
     <use xlink:href="#m7927530210" x="386.515" y="244.320549" style="fill-opacity: 0; stroke: #000000"/>
     <use xlink:href="#m7927530210" x="386.515" y="251.29669" style="fill-opacity: 0; stroke: #000000"/>
     <use xlink:href="#m7927530210" x="386.515" y="253.281133" style="fill-opacity: 0; stroke: #000000"/>
     <use xlink:href="#m7927530210" x="386.515" y="277.76205" style="fill-opacity: 0; stroke: #000000"/>
     <use xlink:href="#m7927530210" x="386.515" y="263.729886" style="fill-opacity: 0; stroke: #000000"/>
     <use xlink:href="#m7927530210" x="386.515" y="251.173758" style="fill-opacity: 0; stroke: #000000"/>
     <use xlink:href="#m7927530210" x="386.515" y="253.114473" style="fill-opacity: 0; stroke: #000000"/>
     <use xlink:href="#m7927530210" x="386.515" y="284.988622" style="fill-opacity: 0; stroke: #000000"/>
     <use xlink:href="#m7927530210" x="386.515" y="265.395955" style="fill-opacity: 0; stroke: #000000"/>
     <use xlink:href="#m7927530210" x="386.515" y="253.519883" style="fill-opacity: 0; stroke: #000000"/>
     <use xlink:href="#m7927530210" x="386.515" y="270.508242" style="fill-opacity: 0; stroke: #000000"/>
     <use xlink:href="#m7927530210" x="386.515" y="272.641487" style="fill-opacity: 0; stroke: #000000"/>
     <use xlink:href="#m7927530210" x="386.515" y="239.431882" style="fill-opacity: 0; stroke: #000000"/>
     <use xlink:href="#m7927530210" x="386.515" y="237.669179" style="fill-opacity: 0; stroke: #000000"/>
     <use xlink:href="#m7927530210" x="386.515" y="251.732076" style="fill-opacity: 0; stroke: #000000"/>
     <use xlink:href="#m7927530210" x="386.515" y="270.286333" style="fill-opacity: 0; stroke: #000000"/>
     <use xlink:href="#m7927530210" x="386.515" y="250.353778" style="fill-opacity: 0; stroke: #000000"/>
     <use xlink:href="#m7927530210" x="386.515" y="255.002182" style="fill-opacity: 0; stroke: #000000"/>
     <use xlink:href="#m7927530210" x="386.515" y="258.459739" style="fill-opacity: 0; stroke: #000000"/>
     <use xlink:href="#m7927530210" x="386.515" y="265.202657" style="fill-opacity: 0; stroke: #000000"/>
     <use xlink:href="#m7927530210" x="386.515" y="249.154151" style="fill-opacity: 0; stroke: #000000"/>
     <use xlink:href="#m7927530210" x="386.515" y="251.308943" style="fill-opacity: 0; stroke: #000000"/>
     <use xlink:href="#m7927530210" x="386.515" y="259.206809" style="fill-opacity: 0; stroke: #000000"/>
     <use xlink:href="#m7927530210" x="386.515" y="263.67511" style="fill-opacity: 0; stroke: #000000"/>
     <use xlink:href="#m7927530210" x="386.515" y="265.151005" style="fill-opacity: 0; stroke: #000000"/>
     <use xlink:href="#m7927530210" x="386.515" y="231.612963" style="fill-opacity: 0; stroke: #000000"/>
     <use xlink:href="#m7927530210" x="386.515" y="268.864884" style="fill-opacity: 0; stroke: #000000"/>
     <use xlink:href="#m7927530210" x="386.515" y="255.506421" style="fill-opacity: 0; stroke: #000000"/>
     <use xlink:href="#m7927530210" x="386.515" y="244.817382" style="fill-opacity: 0; stroke: #000000"/>
     <use xlink:href="#m7927530210" x="386.515" y="289.252902" style="fill-opacity: 0; stroke: #000000"/>
     <use xlink:href="#m7927530210" x="386.515" y="253.268784" style="fill-opacity: 0; stroke: #000000"/>
     <use xlink:href="#m7927530210" x="386.515" y="249.803819" style="fill-opacity: 0; stroke: #000000"/>
     <use xlink:href="#m7927530210" x="386.515" y="275.135828" style="fill-opacity: 0; stroke: #000000"/>
     <use xlink:href="#m7927530210" x="386.515" y="247.691229" style="fill-opacity: 0; stroke: #000000"/>
     <use xlink:href="#m7927530210" x="386.515" y="260.908343" style="fill-opacity: 0; stroke: #000000"/>
     <use xlink:href="#m7927530210" x="386.515" y="230.485529" style="fill-opacity: 0; stroke: #000000"/>
     <use xlink:href="#m7927530210" x="386.515" y="249.041291" style="fill-opacity: 0; stroke: #000000"/>
     <use xlink:href="#m7927530210" x="386.515" y="263.52916" style="fill-opacity: 0; stroke: #000000"/>
     <use xlink:href="#m7927530210" x="386.515" y="319.282294" style="fill-opacity: 0; stroke: #000000"/>
     <use xlink:href="#m7927530210" x="386.515" y="253.367557" style="fill-opacity: 0; stroke: #000000"/>
     <use xlink:href="#m7927530210" x="386.515" y="264.439189" style="fill-opacity: 0; stroke: #000000"/>
     <use xlink:href="#m7927530210" x="386.515" y="256.784551" style="fill-opacity: 0; stroke: #000000"/>
     <use xlink:href="#m7927530210" x="386.515" y="263.783057" style="fill-opacity: 0; stroke: #000000"/>
     <use xlink:href="#m7927530210" x="386.515" y="259.659308" style="fill-opacity: 0; stroke: #000000"/>
     <use xlink:href="#m7927530210" x="386.515" y="260.478951" style="fill-opacity: 0; stroke: #000000"/>
     <use xlink:href="#m7927530210" x="386.515" y="253.89968" style="fill-opacity: 0; stroke: #000000"/>
     <use xlink:href="#m7927530210" x="386.515" y="258.733317" style="fill-opacity: 0; stroke: #000000"/>
     <use xlink:href="#m7927530210" x="386.515" y="262.203082" style="fill-opacity: 0; stroke: #000000"/>
     <use xlink:href="#m7927530210" x="386.515" y="256.586" style="fill-opacity: 0; stroke: #000000"/>
     <use xlink:href="#m7927530210" x="386.515" y="266.46824" style="fill-opacity: 0; stroke: #000000"/>
     <use xlink:href="#m7927530210" x="386.515" y="242.768147" style="fill-opacity: 0; stroke: #000000"/>
     <use xlink:href="#m7927530210" x="386.515" y="264.769383" style="fill-opacity: 0; stroke: #000000"/>
     <use xlink:href="#m7927530210" x="386.515" y="265.61692" style="fill-opacity: 0; stroke: #000000"/>
     <use xlink:href="#m7927530210" x="386.515" y="270.260742" style="fill-opacity: 0; stroke: #000000"/>
     <use xlink:href="#m7927530210" x="386.515" y="266.288716" style="fill-opacity: 0; stroke: #000000"/>
     <use xlink:href="#m7927530210" x="386.515" y="255.437683" style="fill-opacity: 0; stroke: #000000"/>
     <use xlink:href="#m7927530210" x="386.515" y="247.334491" style="fill-opacity: 0; stroke: #000000"/>
     <use xlink:href="#m7927530210" x="386.515" y="263.662167" style="fill-opacity: 0; stroke: #000000"/>
     <use xlink:href="#m7927530210" x="386.515" y="254.737244" style="fill-opacity: 0; stroke: #000000"/>
     <use xlink:href="#m7927530210" x="386.515" y="236.449929" style="fill-opacity: 0; stroke: #000000"/>
     <use xlink:href="#m7927530210" x="386.515" y="265.020507" style="fill-opacity: 0; stroke: #000000"/>
     <use xlink:href="#m7927530210" x="386.515" y="257.618102" style="fill-opacity: 0; stroke: #000000"/>
     <use xlink:href="#m7927530210" x="386.515" y="270.266967" style="fill-opacity: 0; stroke: #000000"/>
     <use xlink:href="#m7927530210" x="386.515" y="256.03763" style="fill-opacity: 0; stroke: #000000"/>
     <use xlink:href="#m7927530210" x="386.515" y="229.748586" style="fill-opacity: 0; stroke: #000000"/>
     <use xlink:href="#m7927530210" x="386.515" y="260.223318" style="fill-opacity: 0; stroke: #000000"/>
     <use xlink:href="#m7927530210" x="386.515" y="260.097926" style="fill-opacity: 0; stroke: #000000"/>
     <use xlink:href="#m7927530210" x="386.515" y="257.712936" style="fill-opacity: 0; stroke: #000000"/>
     <use xlink:href="#m7927530210" x="386.515" y="255.913185" style="fill-opacity: 0; stroke: #000000"/>
     <use xlink:href="#m7927530210" x="386.515" y="251.586345" style="fill-opacity: 0; stroke: #000000"/>
     <use xlink:href="#m7927530210" x="386.515" y="255.98837" style="fill-opacity: 0; stroke: #000000"/>
     <use xlink:href="#m7927530210" x="386.515" y="247.618413" style="fill-opacity: 0; stroke: #000000"/>
     <use xlink:href="#m7927530210" x="386.515" y="257.417625" style="fill-opacity: 0; stroke: #000000"/>
     <use xlink:href="#m7927530210" x="386.515" y="260.673742" style="fill-opacity: 0; stroke: #000000"/>
     <use xlink:href="#m7927530210" x="386.515" y="255.652247" style="fill-opacity: 0; stroke: #000000"/>
     <use xlink:href="#m7927530210" x="386.515" y="247.999963" style="fill-opacity: 0; stroke: #000000"/>
     <use xlink:href="#m7927530210" x="386.515" y="253.577881" style="fill-opacity: 0; stroke: #000000"/>
     <use xlink:href="#m7927530210" x="386.515" y="253.062278" style="fill-opacity: 0; stroke: #000000"/>
     <use xlink:href="#m7927530210" x="386.515" y="257.567679" style="fill-opacity: 0; stroke: #000000"/>
     <use xlink:href="#m7927530210" x="386.515" y="263.205587" style="fill-opacity: 0; stroke: #000000"/>
     <use xlink:href="#m7927530210" x="386.515" y="263.202923" style="fill-opacity: 0; stroke: #000000"/>
     <use xlink:href="#m7927530210" x="386.515" y="246.512128" style="fill-opacity: 0; stroke: #000000"/>
     <use xlink:href="#m7927530210" x="386.515" y="258.787132" style="fill-opacity: 0; stroke: #000000"/>
     <use xlink:href="#m7927530210" x="386.515" y="253.225837" style="fill-opacity: 0; stroke: #000000"/>
     <use xlink:href="#m7927530210" x="386.515" y="238.323134" style="fill-opacity: 0; stroke: #000000"/>
     <use xlink:href="#m7927530210" x="386.515" y="254.555338" style="fill-opacity: 0; stroke: #000000"/>
     <use xlink:href="#m7927530210" x="386.515" y="269.914508" style="fill-opacity: 0; stroke: #000000"/>
     <use xlink:href="#m7927530210" x="386.515" y="259.226099" style="fill-opacity: 0; stroke: #000000"/>
     <use xlink:href="#m7927530210" x="386.515" y="268.048139" style="fill-opacity: 0; stroke: #000000"/>
     <use xlink:href="#m7927530210" x="386.515" y="278.171314" style="fill-opacity: 0; stroke: #000000"/>
     <use xlink:href="#m7927530210" x="386.515" y="257.752818" style="fill-opacity: 0; stroke: #000000"/>
     <use xlink:href="#m7927530210" x="386.515" y="258.435331" style="fill-opacity: 0; stroke: #000000"/>
     <use xlink:href="#m7927530210" x="386.515" y="255.591587" style="fill-opacity: 0; stroke: #000000"/>
     <use xlink:href="#m7927530210" x="386.515" y="240.70859" style="fill-opacity: 0; stroke: #000000"/>
     <use xlink:href="#m7927530210" x="386.515" y="264.384381" style="fill-opacity: 0; stroke: #000000"/>
     <use xlink:href="#m7927530210" x="386.515" y="255.734811" style="fill-opacity: 0; stroke: #000000"/>
     <use xlink:href="#m7927530210" x="386.515" y="247.640806" style="fill-opacity: 0; stroke: #000000"/>
     <use xlink:href="#m7927530210" x="386.515" y="248.508557" style="fill-opacity: 0; stroke: #000000"/>
     <use xlink:href="#m7927530210" x="386.515" y="300.578379" style="fill-opacity: 0; stroke: #000000"/>
     <use xlink:href="#m7927530210" x="386.515" y="246.220246" style="fill-opacity: 0; stroke: #000000"/>
     <use xlink:href="#m7927530210" x="386.515" y="257.356454" style="fill-opacity: 0; stroke: #000000"/>
     <use xlink:href="#m7927530210" x="386.515" y="263.993862" style="fill-opacity: 0; stroke: #000000"/>
     <use xlink:href="#m7927530210" x="386.515" y="245.27707" style="fill-opacity: 0; stroke: #000000"/>
     <use xlink:href="#m7927530210" x="386.515" y="235.424818" style="fill-opacity: 0; stroke: #000000"/>
     <use xlink:href="#m7927530210" x="386.515" y="268.076561" style="fill-opacity: 0; stroke: #000000"/>
     <use xlink:href="#m7927530210" x="386.515" y="261.955522" style="fill-opacity: 0; stroke: #000000"/>
     <use xlink:href="#m7927530210" x="386.515" y="245.122724" style="fill-opacity: 0; stroke: #000000"/>
     <use xlink:href="#m7927530210" x="386.515" y="254.583769" style="fill-opacity: 0; stroke: #000000"/>
     <use xlink:href="#m7927530210" x="386.515" y="244.684081" style="fill-opacity: 0; stroke: #000000"/>
     <use xlink:href="#m7927530210" x="386.515" y="251.690182" style="fill-opacity: 0; stroke: #000000"/>
     <use xlink:href="#m7927530210" x="386.515" y="309.217079" style="fill-opacity: 0; stroke: #000000"/>
    </g>
   </g>
   <g id="line2d_24">
    <path d="M 338.11225 118.545747 
L 434.91775 118.545747 
" clip-path="url(#pf34781c003)" style="fill: none; stroke: #ff7f0e"/>
   </g>
   <g id="patch_4">
    <path d="M 63.83 404.12 
L 63.83 26.16 
" style="fill: none; stroke: #000000; stroke-width: 0.8; stroke-linejoin: miter; stroke-linecap: square"/>
   </g>
   <g id="patch_5">
    <path d="M 709.2 404.12 
L 709.2 26.16 
" style="fill: none; stroke: #000000; stroke-width: 0.8; stroke-linejoin: miter; stroke-linecap: square"/>
   </g>
   <g id="patch_6">
    <path d="M 63.83 404.12 
L 709.2 404.12 
" style="fill: none; stroke: #000000; stroke-width: 0.8; stroke-linejoin: miter; stroke-linecap: square"/>
   </g>
   <g id="patch_7">
    <path d="M 63.83 26.16 
L 709.2 26.16 
" style="fill: none; stroke: #000000; stroke-width: 0.8; stroke-linejoin: miter; stroke-linecap: square"/>
   </g>
   <g id="text_11">
    <!-- Box-Plot des Goodputs (Quiche) -->
    <g transform="translate(290.985625 20.16) scale(0.12 -0.12)">
     <defs>
      <path id="DejaVuSans-42" d="M 1259 2228 
L 1259 519 
L 2272 519 
Q 2781 519 3026 730 
Q 3272 941 3272 1375 
Q 3272 1813 3026 2020 
Q 2781 2228 2272 2228 
L 1259 2228 
z
M 1259 4147 
L 1259 2741 
L 2194 2741 
Q 2656 2741 2882 2914 
Q 3109 3088 3109 3444 
Q 3109 3797 2882 3972 
Q 2656 4147 2194 4147 
L 1259 4147 
z
M 628 4666 
L 2241 4666 
Q 2963 4666 3353 4366 
Q 3744 4066 3744 3513 
Q 3744 3084 3544 2831 
Q 3344 2578 2956 2516 
Q 3422 2416 3680 2098 
Q 3938 1781 3938 1306 
Q 3938 681 3513 340 
Q 3088 0 2303 0 
L 628 0 
L 628 4666 
z
" transform="scale(0.015625)"/>
      <path id="DejaVuSans-78" d="M 3513 3500 
L 2247 1797 
L 3578 0 
L 2900 0 
L 1881 1375 
L 863 0 
L 184 0 
L 1544 1831 
L 300 3500 
L 978 3500 
L 1906 2253 
L 2834 3500 
L 3513 3500 
z
" transform="scale(0.015625)"/>
      <path id="DejaVuSans-2d" d="M 313 2009 
L 1997 2009 
L 1997 1497 
L 313 1497 
L 313 2009 
z
" transform="scale(0.015625)"/>
      <path id="DejaVuSans-50" d="M 1259 4147 
L 1259 2394 
L 2053 2394 
Q 2494 2394 2734 2622 
Q 2975 2850 2975 3272 
Q 2975 3691 2734 3919 
Q 2494 4147 2053 4147 
L 1259 4147 
z
M 628 4666 
L 2053 4666 
Q 2838 4666 3239 4311 
Q 3641 3956 3641 3272 
Q 3641 2581 3239 2228 
Q 2838 1875 2053 1875 
L 1259 1875 
L 1259 0 
L 628 0 
L 628 4666 
z
" transform="scale(0.015625)"/>
      <path id="DejaVuSans-6c" d="M 603 4863 
L 1178 4863 
L 1178 0 
L 603 0 
L 603 4863 
z
" transform="scale(0.015625)"/>
      <path id="DejaVuSans-65" d="M 3597 1894 
L 3597 1613 
L 953 1613 
Q 991 1019 1311 708 
Q 1631 397 2203 397 
Q 2534 397 2845 478 
Q 3156 559 3463 722 
L 3463 178 
Q 3153 47 2828 -22 
Q 2503 -91 2169 -91 
Q 1331 -91 842 396 
Q 353 884 353 1716 
Q 353 2575 817 3079 
Q 1281 3584 2069 3584 
Q 2775 3584 3186 3129 
Q 3597 2675 3597 1894 
z
M 3022 2063 
Q 3016 2534 2758 2815 
Q 2500 3097 2075 3097 
Q 1594 3097 1305 2825 
Q 1016 2553 972 2059 
L 3022 2063 
z
" transform="scale(0.015625)"/>
      <path id="DejaVuSans-51" d="M 2522 4238 
Q 1834 4238 1429 3725 
Q 1025 3213 1025 2328 
Q 1025 1447 1429 934 
Q 1834 422 2522 422 
Q 3209 422 3611 934 
Q 4013 1447 4013 2328 
Q 4013 3213 3611 3725 
Q 3209 4238 2522 4238 
z
M 3406 84 
L 4238 -825 
L 3475 -825 
L 2784 -78 
Q 2681 -84 2626 -87 
Q 2572 -91 2522 -91 
Q 1538 -91 948 567 
Q 359 1225 359 2328 
Q 359 3434 948 4092 
Q 1538 4750 2522 4750 
Q 3503 4750 4090 4092 
Q 4678 3434 4678 2328 
Q 4678 1516 4351 937 
Q 4025 359 3406 84 
z
" transform="scale(0.015625)"/>
      <path id="DejaVuSans-69" d="M 603 3500 
L 1178 3500 
L 1178 0 
L 603 0 
L 603 3500 
z
M 603 4863 
L 1178 4863 
L 1178 4134 
L 603 4134 
L 603 4863 
z
" transform="scale(0.015625)"/>
      <path id="DejaVuSans-63" d="M 3122 3366 
L 3122 2828 
Q 2878 2963 2633 3030 
Q 2388 3097 2138 3097 
Q 1578 3097 1268 2742 
Q 959 2388 959 1747 
Q 959 1106 1268 751 
Q 1578 397 2138 397 
Q 2388 397 2633 464 
Q 2878 531 3122 666 
L 3122 134 
Q 2881 22 2623 -34 
Q 2366 -91 2075 -91 
Q 1284 -91 818 406 
Q 353 903 353 1747 
Q 353 2603 823 3093 
Q 1294 3584 2113 3584 
Q 2378 3584 2631 3529 
Q 2884 3475 3122 3366 
z
" transform="scale(0.015625)"/>
      <path id="DejaVuSans-68" d="M 3513 2113 
L 3513 0 
L 2938 0 
L 2938 2094 
Q 2938 2591 2744 2837 
Q 2550 3084 2163 3084 
Q 1697 3084 1428 2787 
Q 1159 2491 1159 1978 
L 1159 0 
L 581 0 
L 581 4863 
L 1159 4863 
L 1159 2956 
Q 1366 3272 1645 3428 
Q 1925 3584 2291 3584 
Q 2894 3584 3203 3211 
Q 3513 2838 3513 2113 
z
" transform="scale(0.015625)"/>
     </defs>
     <use xlink:href="#DejaVuSans-42"/>
     <use xlink:href="#DejaVuSans-6f" x="68.603516"/>
     <use xlink:href="#DejaVuSans-78" x="126.660156"/>
     <use xlink:href="#DejaVuSans-2d" x="185.839844"/>
     <use xlink:href="#DejaVuSans-50" x="221.923828"/>
     <use xlink:href="#DejaVuSans-6c" x="282.226562"/>
     <use xlink:href="#DejaVuSans-6f" x="310.009766"/>
     <use xlink:href="#DejaVuSans-74" x="371.191406"/>
     <use xlink:href="#DejaVuSans-20" x="410.400391"/>
     <use xlink:href="#DejaVuSans-64" x="442.1875"/>
     <use xlink:href="#DejaVuSans-65" x="505.664062"/>
     <use xlink:href="#DejaVuSans-73" x="567.1875"/>
     <use xlink:href="#DejaVuSans-20" x="619.287109"/>
     <use xlink:href="#DejaVuSans-47" x="651.074219"/>
     <use xlink:href="#DejaVuSans-6f" x="728.564453"/>
     <use xlink:href="#DejaVuSans-6f" x="789.746094"/>
     <use xlink:href="#DejaVuSans-64" x="850.927734"/>
     <use xlink:href="#DejaVuSans-70" x="914.404297"/>
     <use xlink:href="#DejaVuSans-75" x="977.880859"/>
     <use xlink:href="#DejaVuSans-74" x="1041.259766"/>
     <use xlink:href="#DejaVuSans-73" x="1080.46875"/>
     <use xlink:href="#DejaVuSans-20" x="1132.568359"/>
     <use xlink:href="#DejaVuSans-28" x="1164.355469"/>
     <use xlink:href="#DejaVuSans-51" x="1203.369141"/>
     <use xlink:href="#DejaVuSans-75" x="1282.080078"/>
     <use xlink:href="#DejaVuSans-69" x="1345.458984"/>
     <use xlink:href="#DejaVuSans-63" x="1373.242188"/>
     <use xlink:href="#DejaVuSans-68" x="1428.222656"/>
     <use xlink:href="#DejaVuSans-65" x="1491.601562"/>
     <use xlink:href="#DejaVuSans-29" x="1553.125"/>
    </g>
   </g>
  </g>
 </g>
 <defs>
  <clipPath id="pf34781c003">
   <rect x="63.83" y="26.16" width="645.37" height="377.96"/>
  </clipPath>
 </defs>
</svg>
