<?xml version="1.0" encoding="utf-8" standalone="no"?>
<!DOCTYPE svg PUBLIC "-//W3C//DTD SVG 1.1//EN"
  "http://www.w3.org/Graphics/SVG/1.1/DTD/svg11.dtd">
<svg xmlns:xlink="http://www.w3.org/1999/xlink" width="720pt" height="288pt" viewBox="0 0 720 288" xmlns="http://www.w3.org/2000/svg" version="1.1">
 <metadata>
  <rdf:RDF xmlns:dc="http://purl.org/dc/elements/1.1/" xmlns:cc="http://creativecommons.org/ns#" xmlns:rdf="http://www.w3.org/1999/02/22-rdf-syntax-ns#">
   <cc:Work>
    <dc:type rdf:resource="http://purl.org/dc/dcmitype/StillImage"/>
    <dc:date>2023-12-13T11:14:26.899772</dc:date>
    <dc:format>image/svg+xml</dc:format>
    <dc:creator>
     <cc:Agent>
      <dc:title>Matplotlib v3.8.1, https://matplotlib.org/</dc:title>
     </cc:Agent>
    </dc:creator>
   </cc:Work>
  </rdf:RDF>
 </metadata>
 <defs>
  <style type="text/css">*{stroke-linejoin: round; stroke-linecap: butt}</style>
 </defs>
 <g id="figure_1">
  <g id="patch_1">
   <path d="M 0 288 
L 720 288 
L 720 0 
L 0 0 
z
" style="fill: #ffffff"/>
  </g>
  <g id="axes_1">
   <g id="patch_2">
    <path d="M 56.03625 239.88375 
L 707.04 239.88375 
L 707.04 12.96 
L 56.03625 12.96 
z
" style="fill: #ffffff"/>
   </g>
   <g id="matplotlib.axis_1">
    <g id="xtick_1">
     <g id="line2d_1">
      <path d="M 123.98907 239.88375 
L 123.98907 12.96 
" clip-path="url(#pdb7bb7d1c0)" style="fill: none; stroke: #cccccc; stroke-linecap: round"/>
     </g>
     <g id="text_1">
      <!-- 41000 -->
      <g style="fill: #262626" transform="translate(108.696492 257.257344) scale(0.11 -0.11)">
       <defs>
        <path id="ArialMT-34" d="M 2069 0 
L 2069 1097 
L 81 1097 
L 81 1613 
L 2172 4581 
L 2631 4581 
L 2631 1613 
L 3250 1613 
L 3250 1097 
L 2631 1097 
L 2631 0 
L 2069 0 
z
M 2069 1613 
L 2069 3678 
L 634 1613 
L 2069 1613 
z
" transform="scale(0.015625)"/>
        <path id="ArialMT-31" d="M 2384 0 
L 1822 0 
L 1822 3584 
Q 1619 3391 1289 3197 
Q 959 3003 697 2906 
L 697 3450 
Q 1169 3672 1522 3987 
Q 1875 4303 2022 4600 
L 2384 4600 
L 2384 0 
z
" transform="scale(0.015625)"/>
        <path id="ArialMT-30" d="M 266 2259 
Q 266 3072 433 3567 
Q 600 4063 929 4331 
Q 1259 4600 1759 4600 
Q 2128 4600 2406 4451 
Q 2684 4303 2865 4023 
Q 3047 3744 3150 3342 
Q 3253 2941 3253 2259 
Q 3253 1453 3087 958 
Q 2922 463 2592 192 
Q 2263 -78 1759 -78 
Q 1097 -78 719 397 
Q 266 969 266 2259 
z
M 844 2259 
Q 844 1131 1108 757 
Q 1372 384 1759 384 
Q 2147 384 2411 759 
Q 2675 1134 2675 2259 
Q 2675 3391 2411 3762 
Q 2147 4134 1753 4134 
Q 1366 4134 1134 3806 
Q 844 3388 844 2259 
z
" transform="scale(0.015625)"/>
       </defs>
       <use xlink:href="#ArialMT-34"/>
       <use xlink:href="#ArialMT-31" x="55.615234"/>
       <use xlink:href="#ArialMT-30" x="111.230469"/>
       <use xlink:href="#ArialMT-30" x="166.845703"/>
       <use xlink:href="#ArialMT-30" x="222.460938"/>
      </g>
     </g>
    </g>
    <g id="xtick_2">
     <g id="line2d_2">
      <path d="M 233.283882 239.88375 
L 233.283882 12.96 
" clip-path="url(#pdb7bb7d1c0)" style="fill: none; stroke: #cccccc; stroke-linecap: round"/>
     </g>
     <g id="text_2">
      <!-- 42000 -->
      <g style="fill: #262626" transform="translate(217.991304 257.257344) scale(0.11 -0.11)">
       <defs>
        <path id="ArialMT-32" d="M 3222 541 
L 3222 0 
L 194 0 
Q 188 203 259 391 
Q 375 700 629 1000 
Q 884 1300 1366 1694 
Q 2113 2306 2375 2664 
Q 2638 3022 2638 3341 
Q 2638 3675 2398 3904 
Q 2159 4134 1775 4134 
Q 1369 4134 1125 3890 
Q 881 3647 878 3216 
L 300 3275 
Q 359 3922 746 4261 
Q 1134 4600 1788 4600 
Q 2447 4600 2831 4234 
Q 3216 3869 3216 3328 
Q 3216 3053 3103 2787 
Q 2991 2522 2730 2228 
Q 2469 1934 1863 1422 
Q 1356 997 1212 845 
Q 1069 694 975 541 
L 3222 541 
z
" transform="scale(0.015625)"/>
       </defs>
       <use xlink:href="#ArialMT-34"/>
       <use xlink:href="#ArialMT-32" x="55.615234"/>
       <use xlink:href="#ArialMT-30" x="111.230469"/>
       <use xlink:href="#ArialMT-30" x="166.845703"/>
       <use xlink:href="#ArialMT-30" x="222.460938"/>
      </g>
     </g>
    </g>
    <g id="xtick_3">
     <g id="line2d_3">
      <path d="M 342.578693 239.88375 
L 342.578693 12.96 
" clip-path="url(#pdb7bb7d1c0)" style="fill: none; stroke: #cccccc; stroke-linecap: round"/>
     </g>
     <g id="text_3">
      <!-- 43000 -->
      <g style="fill: #262626" transform="translate(327.286115 257.257344) scale(0.11 -0.11)">
       <defs>
        <path id="ArialMT-33" d="M 269 1209 
L 831 1284 
Q 928 806 1161 595 
Q 1394 384 1728 384 
Q 2125 384 2398 659 
Q 2672 934 2672 1341 
Q 2672 1728 2419 1979 
Q 2166 2231 1775 2231 
Q 1616 2231 1378 2169 
L 1441 2663 
Q 1497 2656 1531 2656 
Q 1891 2656 2178 2843 
Q 2466 3031 2466 3422 
Q 2466 3731 2256 3934 
Q 2047 4138 1716 4138 
Q 1388 4138 1169 3931 
Q 950 3725 888 3313 
L 325 3413 
Q 428 3978 793 4289 
Q 1159 4600 1703 4600 
Q 2078 4600 2393 4439 
Q 2709 4278 2876 4000 
Q 3044 3722 3044 3409 
Q 3044 3113 2884 2869 
Q 2725 2625 2413 2481 
Q 2819 2388 3044 2092 
Q 3269 1797 3269 1353 
Q 3269 753 2831 336 
Q 2394 -81 1725 -81 
Q 1122 -81 723 278 
Q 325 638 269 1209 
z
" transform="scale(0.015625)"/>
       </defs>
       <use xlink:href="#ArialMT-34"/>
       <use xlink:href="#ArialMT-33" x="55.615234"/>
       <use xlink:href="#ArialMT-30" x="111.230469"/>
       <use xlink:href="#ArialMT-30" x="166.845703"/>
       <use xlink:href="#ArialMT-30" x="222.460938"/>
      </g>
     </g>
    </g>
    <g id="xtick_4">
     <g id="line2d_4">
      <path d="M 451.873505 239.88375 
L 451.873505 12.96 
" clip-path="url(#pdb7bb7d1c0)" style="fill: none; stroke: #cccccc; stroke-linecap: round"/>
     </g>
     <g id="text_4">
      <!-- 44000 -->
      <g style="fill: #262626" transform="translate(436.580927 257.257344) scale(0.11 -0.11)">
       <use xlink:href="#ArialMT-34"/>
       <use xlink:href="#ArialMT-34" x="55.615234"/>
       <use xlink:href="#ArialMT-30" x="111.230469"/>
       <use xlink:href="#ArialMT-30" x="166.845703"/>
       <use xlink:href="#ArialMT-30" x="222.460938"/>
      </g>
     </g>
    </g>
    <g id="xtick_5">
     <g id="line2d_5">
      <path d="M 561.168316 239.88375 
L 561.168316 12.96 
" clip-path="url(#pdb7bb7d1c0)" style="fill: none; stroke: #cccccc; stroke-linecap: round"/>
     </g>
     <g id="text_5">
      <!-- 45000 -->
      <g style="fill: #262626" transform="translate(545.875738 257.257344) scale(0.11 -0.11)">
       <defs>
        <path id="ArialMT-35" d="M 266 1200 
L 856 1250 
Q 922 819 1161 601 
Q 1400 384 1738 384 
Q 2144 384 2425 690 
Q 2706 997 2706 1503 
Q 2706 1984 2436 2262 
Q 2166 2541 1728 2541 
Q 1456 2541 1237 2417 
Q 1019 2294 894 2097 
L 366 2166 
L 809 4519 
L 3088 4519 
L 3088 3981 
L 1259 3981 
L 1013 2750 
Q 1425 3038 1878 3038 
Q 2478 3038 2890 2622 
Q 3303 2206 3303 1553 
Q 3303 931 2941 478 
Q 2500 -78 1738 -78 
Q 1113 -78 717 272 
Q 322 622 266 1200 
z
" transform="scale(0.015625)"/>
       </defs>
       <use xlink:href="#ArialMT-34"/>
       <use xlink:href="#ArialMT-35" x="55.615234"/>
       <use xlink:href="#ArialMT-30" x="111.230469"/>
       <use xlink:href="#ArialMT-30" x="166.845703"/>
       <use xlink:href="#ArialMT-30" x="222.460938"/>
      </g>
     </g>
    </g>
    <g id="xtick_6">
     <g id="line2d_6">
      <path d="M 670.463128 239.88375 
L 670.463128 12.96 
" clip-path="url(#pdb7bb7d1c0)" style="fill: none; stroke: #cccccc; stroke-linecap: round"/>
     </g>
     <g id="text_6">
      <!-- 46000 -->
      <g style="fill: #262626" transform="translate(655.17055 257.257344) scale(0.11 -0.11)">
       <defs>
        <path id="ArialMT-36" d="M 3184 3459 
L 2625 3416 
Q 2550 3747 2413 3897 
Q 2184 4138 1850 4138 
Q 1581 4138 1378 3988 
Q 1113 3794 959 3422 
Q 806 3050 800 2363 
Q 1003 2672 1297 2822 
Q 1591 2972 1913 2972 
Q 2475 2972 2870 2558 
Q 3266 2144 3266 1488 
Q 3266 1056 3080 686 
Q 2894 316 2569 119 
Q 2244 -78 1831 -78 
Q 1128 -78 684 439 
Q 241 956 241 2144 
Q 241 3472 731 4075 
Q 1159 4600 1884 4600 
Q 2425 4600 2770 4297 
Q 3116 3994 3184 3459 
z
M 888 1484 
Q 888 1194 1011 928 
Q 1134 663 1356 523 
Q 1578 384 1822 384 
Q 2178 384 2434 671 
Q 2691 959 2691 1453 
Q 2691 1928 2437 2201 
Q 2184 2475 1800 2475 
Q 1419 2475 1153 2201 
Q 888 1928 888 1484 
z
" transform="scale(0.015625)"/>
       </defs>
       <use xlink:href="#ArialMT-34"/>
       <use xlink:href="#ArialMT-36" x="55.615234"/>
       <use xlink:href="#ArialMT-30" x="111.230469"/>
       <use xlink:href="#ArialMT-30" x="166.845703"/>
       <use xlink:href="#ArialMT-30" x="222.460938"/>
      </g>
     </g>
    </g>
    <g id="text_7">
     <!-- Goodput (kbps) -->
     <g style="fill: #262626" transform="translate(340.185937 272.179219) scale(0.12 -0.12)">
      <defs>
       <path id="ArialMT-47" d="M 2638 1797 
L 2638 2334 
L 4578 2338 
L 4578 638 
Q 4131 281 3656 101 
Q 3181 -78 2681 -78 
Q 2006 -78 1454 211 
Q 903 500 622 1047 
Q 341 1594 341 2269 
Q 341 2938 620 3517 
Q 900 4097 1425 4378 
Q 1950 4659 2634 4659 
Q 3131 4659 3532 4498 
Q 3934 4338 4162 4050 
Q 4391 3763 4509 3300 
L 3963 3150 
Q 3859 3500 3706 3700 
Q 3553 3900 3268 4020 
Q 2984 4141 2638 4141 
Q 2222 4141 1919 4014 
Q 1616 3888 1430 3681 
Q 1244 3475 1141 3228 
Q 966 2803 966 2306 
Q 966 1694 1177 1281 
Q 1388 869 1791 669 
Q 2194 469 2647 469 
Q 3041 469 3416 620 
Q 3791 772 3984 944 
L 3984 1797 
L 2638 1797 
z
" transform="scale(0.015625)"/>
       <path id="ArialMT-6f" d="M 213 1659 
Q 213 2581 725 3025 
Q 1153 3394 1769 3394 
Q 2453 3394 2887 2945 
Q 3322 2497 3322 1706 
Q 3322 1066 3130 698 
Q 2938 331 2570 128 
Q 2203 -75 1769 -75 
Q 1072 -75 642 372 
Q 213 819 213 1659 
z
M 791 1659 
Q 791 1022 1069 705 
Q 1347 388 1769 388 
Q 2188 388 2466 706 
Q 2744 1025 2744 1678 
Q 2744 2294 2464 2611 
Q 2184 2928 1769 2928 
Q 1347 2928 1069 2612 
Q 791 2297 791 1659 
z
" transform="scale(0.015625)"/>
       <path id="ArialMT-64" d="M 2575 0 
L 2575 419 
Q 2259 -75 1647 -75 
Q 1250 -75 917 144 
Q 584 363 401 755 
Q 219 1147 219 1656 
Q 219 2153 384 2558 
Q 550 2963 881 3178 
Q 1213 3394 1622 3394 
Q 1922 3394 2156 3267 
Q 2391 3141 2538 2938 
L 2538 4581 
L 3097 4581 
L 3097 0 
L 2575 0 
z
M 797 1656 
Q 797 1019 1065 703 
Q 1334 388 1700 388 
Q 2069 388 2326 689 
Q 2584 991 2584 1609 
Q 2584 2291 2321 2609 
Q 2059 2928 1675 2928 
Q 1300 2928 1048 2622 
Q 797 2316 797 1656 
z
" transform="scale(0.015625)"/>
       <path id="ArialMT-70" d="M 422 -1272 
L 422 3319 
L 934 3319 
L 934 2888 
Q 1116 3141 1344 3267 
Q 1572 3394 1897 3394 
Q 2322 3394 2647 3175 
Q 2972 2956 3137 2557 
Q 3303 2159 3303 1684 
Q 3303 1175 3120 767 
Q 2938 359 2589 142 
Q 2241 -75 1856 -75 
Q 1575 -75 1351 44 
Q 1128 163 984 344 
L 984 -1272 
L 422 -1272 
z
M 931 1641 
Q 931 1000 1190 694 
Q 1450 388 1819 388 
Q 2194 388 2461 705 
Q 2728 1022 2728 1688 
Q 2728 2322 2467 2637 
Q 2206 2953 1844 2953 
Q 1484 2953 1207 2617 
Q 931 2281 931 1641 
z
" transform="scale(0.015625)"/>
       <path id="ArialMT-75" d="M 2597 0 
L 2597 488 
Q 2209 -75 1544 -75 
Q 1250 -75 995 37 
Q 741 150 617 320 
Q 494 491 444 738 
Q 409 903 409 1263 
L 409 3319 
L 972 3319 
L 972 1478 
Q 972 1038 1006 884 
Q 1059 663 1231 536 
Q 1403 409 1656 409 
Q 1909 409 2131 539 
Q 2353 669 2445 892 
Q 2538 1116 2538 1541 
L 2538 3319 
L 3100 3319 
L 3100 0 
L 2597 0 
z
" transform="scale(0.015625)"/>
       <path id="ArialMT-74" d="M 1650 503 
L 1731 6 
Q 1494 -44 1306 -44 
Q 1000 -44 831 53 
Q 663 150 594 308 
Q 525 466 525 972 
L 525 2881 
L 113 2881 
L 113 3319 
L 525 3319 
L 525 4141 
L 1084 4478 
L 1084 3319 
L 1650 3319 
L 1650 2881 
L 1084 2881 
L 1084 941 
Q 1084 700 1114 631 
Q 1144 563 1211 522 
Q 1278 481 1403 481 
Q 1497 481 1650 503 
z
" transform="scale(0.015625)"/>
       <path id="ArialMT-20" transform="scale(0.015625)"/>
       <path id="ArialMT-28" d="M 1497 -1347 
Q 1031 -759 709 28 
Q 388 816 388 1659 
Q 388 2403 628 3084 
Q 909 3875 1497 4659 
L 1900 4659 
Q 1522 4009 1400 3731 
Q 1209 3300 1100 2831 
Q 966 2247 966 1656 
Q 966 153 1900 -1347 
L 1497 -1347 
z
" transform="scale(0.015625)"/>
       <path id="ArialMT-6b" d="M 425 0 
L 425 4581 
L 988 4581 
L 988 1969 
L 2319 3319 
L 3047 3319 
L 1778 2088 
L 3175 0 
L 2481 0 
L 1384 1697 
L 988 1316 
L 988 0 
L 425 0 
z
" transform="scale(0.015625)"/>
       <path id="ArialMT-62" d="M 941 0 
L 419 0 
L 419 4581 
L 981 4581 
L 981 2947 
Q 1338 3394 1891 3394 
Q 2197 3394 2470 3270 
Q 2744 3147 2920 2923 
Q 3097 2700 3197 2384 
Q 3297 2069 3297 1709 
Q 3297 856 2875 390 
Q 2453 -75 1863 -75 
Q 1275 -75 941 416 
L 941 0 
z
M 934 1684 
Q 934 1088 1097 822 
Q 1363 388 1816 388 
Q 2184 388 2453 708 
Q 2722 1028 2722 1663 
Q 2722 2313 2464 2622 
Q 2206 2931 1841 2931 
Q 1472 2931 1203 2611 
Q 934 2291 934 1684 
z
" transform="scale(0.015625)"/>
       <path id="ArialMT-73" d="M 197 991 
L 753 1078 
Q 800 744 1014 566 
Q 1228 388 1613 388 
Q 2000 388 2187 545 
Q 2375 703 2375 916 
Q 2375 1106 2209 1216 
Q 2094 1291 1634 1406 
Q 1016 1563 777 1677 
Q 538 1791 414 1992 
Q 291 2194 291 2438 
Q 291 2659 392 2848 
Q 494 3038 669 3163 
Q 800 3259 1026 3326 
Q 1253 3394 1513 3394 
Q 1903 3394 2198 3281 
Q 2494 3169 2634 2976 
Q 2775 2784 2828 2463 
L 2278 2388 
Q 2241 2644 2061 2787 
Q 1881 2931 1553 2931 
Q 1166 2931 1000 2803 
Q 834 2675 834 2503 
Q 834 2394 903 2306 
Q 972 2216 1119 2156 
Q 1203 2125 1616 2013 
Q 2213 1853 2448 1751 
Q 2684 1650 2818 1456 
Q 2953 1263 2953 975 
Q 2953 694 2789 445 
Q 2625 197 2315 61 
Q 2006 -75 1616 -75 
Q 969 -75 630 194 
Q 291 463 197 991 
z
" transform="scale(0.015625)"/>
       <path id="ArialMT-29" d="M 791 -1347 
L 388 -1347 
Q 1322 153 1322 1656 
Q 1322 2244 1188 2822 
Q 1081 3291 891 3722 
Q 769 4003 388 4659 
L 791 4659 
Q 1378 3875 1659 3084 
Q 1900 2403 1900 1659 
Q 1900 816 1576 28 
Q 1253 -759 791 -1347 
z
" transform="scale(0.015625)"/>
      </defs>
      <use xlink:href="#ArialMT-47"/>
      <use xlink:href="#ArialMT-6f" x="77.783203"/>
      <use xlink:href="#ArialMT-6f" x="133.398438"/>
      <use xlink:href="#ArialMT-64" x="189.013672"/>
      <use xlink:href="#ArialMT-70" x="244.628906"/>
      <use xlink:href="#ArialMT-75" x="300.244141"/>
      <use xlink:href="#ArialMT-74" x="355.859375"/>
      <use xlink:href="#ArialMT-20" x="383.642578"/>
      <use xlink:href="#ArialMT-28" x="411.425781"/>
      <use xlink:href="#ArialMT-6b" x="444.726562"/>
      <use xlink:href="#ArialMT-62" x="494.726562"/>
      <use xlink:href="#ArialMT-70" x="550.341797"/>
      <use xlink:href="#ArialMT-73" x="605.957031"/>
      <use xlink:href="#ArialMT-29" x="655.957031"/>
     </g>
    </g>
   </g>
   <g id="matplotlib.axis_2">
    <g id="ytick_1">
     <g id="line2d_7">
      <path d="M 56.03625 239.88375 
L 707.04 239.88375 
" clip-path="url(#pdb7bb7d1c0)" style="fill: none; stroke: #cccccc; stroke-linecap: round"/>
     </g>
     <g id="text_8">
      <!-- 0 -->
      <g style="fill: #262626" transform="translate(40.419219 243.820547) scale(0.11 -0.11)">
       <use xlink:href="#ArialMT-30"/>
      </g>
     </g>
    </g>
    <g id="ytick_2">
     <g id="line2d_8">
      <path d="M 56.03625 193.998855 
L 707.04 193.998855 
" clip-path="url(#pdb7bb7d1c0)" style="fill: none; stroke: #cccccc; stroke-linecap: round"/>
     </g>
     <g id="text_9">
      <!-- 200 -->
      <g style="fill: #262626" transform="translate(28.185156 197.935652) scale(0.11 -0.11)">
       <use xlink:href="#ArialMT-32"/>
       <use xlink:href="#ArialMT-30" x="55.615234"/>
       <use xlink:href="#ArialMT-30" x="111.230469"/>
      </g>
     </g>
    </g>
    <g id="ytick_3">
     <g id="line2d_9">
      <path d="M 56.03625 148.113959 
L 707.04 148.113959 
" clip-path="url(#pdb7bb7d1c0)" style="fill: none; stroke: #cccccc; stroke-linecap: round"/>
     </g>
     <g id="text_10">
      <!-- 400 -->
      <g style="fill: #262626" transform="translate(28.185156 152.050756) scale(0.11 -0.11)">
       <use xlink:href="#ArialMT-34"/>
       <use xlink:href="#ArialMT-30" x="55.615234"/>
       <use xlink:href="#ArialMT-30" x="111.230469"/>
      </g>
     </g>
    </g>
    <g id="ytick_4">
     <g id="line2d_10">
      <path d="M 56.03625 102.229064 
L 707.04 102.229064 
" clip-path="url(#pdb7bb7d1c0)" style="fill: none; stroke: #cccccc; stroke-linecap: round"/>
     </g>
     <g id="text_11">
      <!-- 600 -->
      <g style="fill: #262626" transform="translate(28.185156 106.165861) scale(0.11 -0.11)">
       <use xlink:href="#ArialMT-36"/>
       <use xlink:href="#ArialMT-30" x="55.615234"/>
       <use xlink:href="#ArialMT-30" x="111.230469"/>
      </g>
     </g>
    </g>
    <g id="ytick_5">
     <g id="line2d_11">
      <path d="M 56.03625 56.344169 
L 707.04 56.344169 
" clip-path="url(#pdb7bb7d1c0)" style="fill: none; stroke: #cccccc; stroke-linecap: round"/>
     </g>
     <g id="text_12">
      <!-- 800 -->
      <g style="fill: #262626" transform="translate(28.185156 60.280965) scale(0.11 -0.11)">
       <defs>
        <path id="ArialMT-38" d="M 1131 2484 
Q 781 2613 612 2850 
Q 444 3088 444 3419 
Q 444 3919 803 4259 
Q 1163 4600 1759 4600 
Q 2359 4600 2725 4251 
Q 3091 3903 3091 3403 
Q 3091 3084 2923 2848 
Q 2756 2613 2416 2484 
Q 2838 2347 3058 2040 
Q 3278 1734 3278 1309 
Q 3278 722 2862 322 
Q 2447 -78 1769 -78 
Q 1091 -78 675 323 
Q 259 725 259 1325 
Q 259 1772 486 2073 
Q 713 2375 1131 2484 
z
M 1019 3438 
Q 1019 3113 1228 2906 
Q 1438 2700 1772 2700 
Q 2097 2700 2305 2904 
Q 2513 3109 2513 3406 
Q 2513 3716 2298 3927 
Q 2084 4138 1766 4138 
Q 1444 4138 1231 3931 
Q 1019 3725 1019 3438 
z
M 838 1322 
Q 838 1081 952 856 
Q 1066 631 1291 507 
Q 1516 384 1775 384 
Q 2178 384 2440 643 
Q 2703 903 2703 1303 
Q 2703 1709 2433 1975 
Q 2163 2241 1756 2241 
Q 1359 2241 1098 1978 
Q 838 1716 838 1322 
z
" transform="scale(0.015625)"/>
       </defs>
       <use xlink:href="#ArialMT-38"/>
       <use xlink:href="#ArialMT-30" x="55.615234"/>
       <use xlink:href="#ArialMT-30" x="111.230469"/>
      </g>
     </g>
    </g>
    <g id="text_13">
     <!-- Häufigkeit -->
     <g style="fill: #262626" transform="translate(21.659531 153.10125) rotate(-90) scale(0.12 -0.12)">
      <defs>
       <path id="ArialMT-48" d="M 513 0 
L 513 4581 
L 1119 4581 
L 1119 2700 
L 3500 2700 
L 3500 4581 
L 4106 4581 
L 4106 0 
L 3500 0 
L 3500 2159 
L 1119 2159 
L 1119 0 
L 513 0 
z
" transform="scale(0.015625)"/>
       <path id="ArialMT-e4" d="M 2588 409 
Q 2275 144 1986 34 
Q 1697 -75 1366 -75 
Q 819 -75 525 192 
Q 231 459 231 875 
Q 231 1119 342 1320 
Q 453 1522 633 1644 
Q 813 1766 1038 1828 
Q 1203 1872 1538 1913 
Q 2219 1994 2541 2106 
Q 2544 2222 2544 2253 
Q 2544 2597 2384 2738 
Q 2169 2928 1744 2928 
Q 1347 2928 1158 2789 
Q 969 2650 878 2297 
L 328 2372 
Q 403 2725 575 2942 
Q 747 3159 1072 3276 
Q 1397 3394 1825 3394 
Q 2250 3394 2515 3294 
Q 2781 3194 2906 3042 
Q 3031 2891 3081 2659 
Q 3109 2516 3109 2141 
L 3109 1391 
Q 3109 606 3145 398 
Q 3181 191 3288 0 
L 2700 0 
Q 2613 175 2588 409 
z
M 2541 1666 
Q 2234 1541 1622 1453 
Q 1275 1403 1131 1340 
Q 988 1278 909 1158 
Q 831 1038 831 891 
Q 831 666 1001 516 
Q 1172 366 1500 366 
Q 1825 366 2078 508 
Q 2331 650 2450 897 
Q 2541 1088 2541 1459 
L 2541 1666 
z
M 887 3969 
L 887 4609 
L 1474 4609 
L 1474 3969 
L 887 3969 
z
M 2052 3969 
L 2052 4609 
L 2640 4609 
L 2640 3969 
L 2052 3969 
z
" transform="scale(0.015625)"/>
       <path id="ArialMT-66" d="M 556 0 
L 556 2881 
L 59 2881 
L 59 3319 
L 556 3319 
L 556 3672 
Q 556 4006 616 4169 
Q 697 4388 901 4523 
Q 1106 4659 1475 4659 
Q 1713 4659 2000 4603 
L 1916 4113 
Q 1741 4144 1584 4144 
Q 1328 4144 1222 4034 
Q 1116 3925 1116 3625 
L 1116 3319 
L 1763 3319 
L 1763 2881 
L 1116 2881 
L 1116 0 
L 556 0 
z
" transform="scale(0.015625)"/>
       <path id="ArialMT-69" d="M 425 3934 
L 425 4581 
L 988 4581 
L 988 3934 
L 425 3934 
z
M 425 0 
L 425 3319 
L 988 3319 
L 988 0 
L 425 0 
z
" transform="scale(0.015625)"/>
       <path id="ArialMT-67" d="M 319 -275 
L 866 -356 
Q 900 -609 1056 -725 
Q 1266 -881 1628 -881 
Q 2019 -881 2231 -725 
Q 2444 -569 2519 -288 
Q 2563 -116 2559 434 
Q 2191 0 1641 0 
Q 956 0 581 494 
Q 206 988 206 1678 
Q 206 2153 378 2554 
Q 550 2956 876 3175 
Q 1203 3394 1644 3394 
Q 2231 3394 2613 2919 
L 2613 3319 
L 3131 3319 
L 3131 450 
Q 3131 -325 2973 -648 
Q 2816 -972 2473 -1159 
Q 2131 -1347 1631 -1347 
Q 1038 -1347 672 -1080 
Q 306 -813 319 -275 
z
M 784 1719 
Q 784 1066 1043 766 
Q 1303 466 1694 466 
Q 2081 466 2343 764 
Q 2606 1063 2606 1700 
Q 2606 2309 2336 2618 
Q 2066 2928 1684 2928 
Q 1309 2928 1046 2623 
Q 784 2319 784 1719 
z
" transform="scale(0.015625)"/>
       <path id="ArialMT-65" d="M 2694 1069 
L 3275 997 
Q 3138 488 2766 206 
Q 2394 -75 1816 -75 
Q 1088 -75 661 373 
Q 234 822 234 1631 
Q 234 2469 665 2931 
Q 1097 3394 1784 3394 
Q 2450 3394 2872 2941 
Q 3294 2488 3294 1666 
Q 3294 1616 3291 1516 
L 816 1516 
Q 847 969 1125 678 
Q 1403 388 1819 388 
Q 2128 388 2347 550 
Q 2566 713 2694 1069 
z
M 847 1978 
L 2700 1978 
Q 2663 2397 2488 2606 
Q 2219 2931 1791 2931 
Q 1403 2931 1139 2672 
Q 875 2413 847 1978 
z
" transform="scale(0.015625)"/>
      </defs>
      <use xlink:href="#ArialMT-48"/>
      <use xlink:href="#ArialMT-e4" x="72.216797"/>
      <use xlink:href="#ArialMT-75" x="127.832031"/>
      <use xlink:href="#ArialMT-66" x="183.447266"/>
      <use xlink:href="#ArialMT-69" x="211.230469"/>
      <use xlink:href="#ArialMT-67" x="233.447266"/>
      <use xlink:href="#ArialMT-6b" x="289.0625"/>
      <use xlink:href="#ArialMT-65" x="339.0625"/>
      <use xlink:href="#ArialMT-69" x="394.677734"/>
      <use xlink:href="#ArialMT-74" x="416.894531"/>
     </g>
    </g>
   </g>
   <g id="patch_3">
    <path d="M 56.03625 239.88375 
L 62.747629 239.88375 
L 62.747629 239.654326 
L 56.03625 239.654326 
z
" clip-path="url(#pdb7bb7d1c0)" style="fill: #4169e1; fill-opacity: 0.5; stroke: #ffffff; stroke-width: 0.522962; stroke-linejoin: miter"/>
   </g>
   <g id="patch_4">
    <path d="M 62.747629 239.88375 
L 69.459008 239.88375 
L 69.459008 239.88375 
L 62.747629 239.88375 
z
" clip-path="url(#pdb7bb7d1c0)" style="fill: #4169e1; fill-opacity: 0.5; stroke: #ffffff; stroke-width: 0.522962; stroke-linejoin: miter"/>
   </g>
   <g id="patch_5">
    <path d="M 69.459008 239.88375 
L 76.170387 239.88375 
L 76.170387 239.88375 
L 69.459008 239.88375 
z
" clip-path="url(#pdb7bb7d1c0)" style="fill: #4169e1; fill-opacity: 0.5; stroke: #ffffff; stroke-width: 0.522962; stroke-linejoin: miter"/>
   </g>
   <g id="patch_6">
    <path d="M 76.170387 239.88375 
L 82.881765 239.88375 
L 82.881765 239.88375 
L 76.170387 239.88375 
z
" clip-path="url(#pdb7bb7d1c0)" style="fill: #4169e1; fill-opacity: 0.5; stroke: #ffffff; stroke-width: 0.522962; stroke-linejoin: miter"/>
   </g>
   <g id="patch_7">
    <path d="M 82.881765 239.88375 
L 89.593144 239.88375 
L 89.593144 239.88375 
L 82.881765 239.88375 
z
" clip-path="url(#pdb7bb7d1c0)" style="fill: #4169e1; fill-opacity: 0.5; stroke: #ffffff; stroke-width: 0.522962; stroke-linejoin: miter"/>
   </g>
   <g id="patch_8">
    <path d="M 89.593144 239.88375 
L 96.304523 239.88375 
L 96.304523 239.88375 
L 89.593144 239.88375 
z
" clip-path="url(#pdb7bb7d1c0)" style="fill: #4169e1; fill-opacity: 0.5; stroke: #ffffff; stroke-width: 0.522962; stroke-linejoin: miter"/>
   </g>
   <g id="patch_9">
    <path d="M 96.304523 239.88375 
L 103.015902 239.88375 
L 103.015902 239.88375 
L 96.304523 239.88375 
z
" clip-path="url(#pdb7bb7d1c0)" style="fill: #4169e1; fill-opacity: 0.5; stroke: #ffffff; stroke-width: 0.522962; stroke-linejoin: miter"/>
   </g>
   <g id="patch_10">
    <path d="M 103.015902 239.88375 
L 109.727281 239.88375 
L 109.727281 239.88375 
L 103.015902 239.88375 
z
" clip-path="url(#pdb7bb7d1c0)" style="fill: #4169e1; fill-opacity: 0.5; stroke: #ffffff; stroke-width: 0.522962; stroke-linejoin: miter"/>
   </g>
   <g id="patch_11">
    <path d="M 109.727281 239.88375 
L 116.43866 239.88375 
L 116.43866 239.88375 
L 109.727281 239.88375 
z
" clip-path="url(#pdb7bb7d1c0)" style="fill: #4169e1; fill-opacity: 0.5; stroke: #ffffff; stroke-width: 0.522962; stroke-linejoin: miter"/>
   </g>
   <g id="patch_12">
    <path d="M 116.43866 239.88375 
L 123.150039 239.88375 
L 123.150039 239.88375 
L 116.43866 239.88375 
z
" clip-path="url(#pdb7bb7d1c0)" style="fill: #4169e1; fill-opacity: 0.5; stroke: #ffffff; stroke-width: 0.522962; stroke-linejoin: miter"/>
   </g>
   <g id="patch_13">
    <path d="M 123.150039 239.88375 
L 129.861418 239.88375 
L 129.861418 239.88375 
L 123.150039 239.88375 
z
" clip-path="url(#pdb7bb7d1c0)" style="fill: #4169e1; fill-opacity: 0.5; stroke: #ffffff; stroke-width: 0.522962; stroke-linejoin: miter"/>
   </g>
   <g id="patch_14">
    <path d="M 129.861418 239.88375 
L 136.572796 239.88375 
L 136.572796 239.654326 
L 129.861418 239.654326 
z
" clip-path="url(#pdb7bb7d1c0)" style="fill: #4169e1; fill-opacity: 0.5; stroke: #ffffff; stroke-width: 0.522962; stroke-linejoin: miter"/>
   </g>
   <g id="patch_15">
    <path d="M 136.572796 239.88375 
L 143.284175 239.88375 
L 143.284175 239.88375 
L 136.572796 239.88375 
z
" clip-path="url(#pdb7bb7d1c0)" style="fill: #4169e1; fill-opacity: 0.5; stroke: #ffffff; stroke-width: 0.522962; stroke-linejoin: miter"/>
   </g>
   <g id="patch_16">
    <path d="M 143.284175 239.88375 
L 149.995554 239.88375 
L 149.995554 239.88375 
L 143.284175 239.88375 
z
" clip-path="url(#pdb7bb7d1c0)" style="fill: #4169e1; fill-opacity: 0.5; stroke: #ffffff; stroke-width: 0.522962; stroke-linejoin: miter"/>
   </g>
   <g id="patch_17">
    <path d="M 149.995554 239.88375 
L 156.706933 239.88375 
L 156.706933 239.88375 
L 149.995554 239.88375 
z
" clip-path="url(#pdb7bb7d1c0)" style="fill: #4169e1; fill-opacity: 0.5; stroke: #ffffff; stroke-width: 0.522962; stroke-linejoin: miter"/>
   </g>
   <g id="patch_18">
    <path d="M 156.706933 239.88375 
L 163.418312 239.88375 
L 163.418312 239.424901 
L 156.706933 239.424901 
z
" clip-path="url(#pdb7bb7d1c0)" style="fill: #4169e1; fill-opacity: 0.5; stroke: #ffffff; stroke-width: 0.522962; stroke-linejoin: miter"/>
   </g>
   <g id="patch_19">
    <path d="M 163.418312 239.88375 
L 170.129691 239.88375 
L 170.129691 239.88375 
L 163.418312 239.88375 
z
" clip-path="url(#pdb7bb7d1c0)" style="fill: #4169e1; fill-opacity: 0.5; stroke: #ffffff; stroke-width: 0.522962; stroke-linejoin: miter"/>
   </g>
   <g id="patch_20">
    <path d="M 170.129691 239.88375 
L 176.84107 239.88375 
L 176.84107 239.654326 
L 170.129691 239.654326 
z
" clip-path="url(#pdb7bb7d1c0)" style="fill: #4169e1; fill-opacity: 0.5; stroke: #ffffff; stroke-width: 0.522962; stroke-linejoin: miter"/>
   </g>
   <g id="patch_21">
    <path d="M 176.84107 239.88375 
L 183.552448 239.88375 
L 183.552448 239.88375 
L 176.84107 239.88375 
z
" clip-path="url(#pdb7bb7d1c0)" style="fill: #4169e1; fill-opacity: 0.5; stroke: #ffffff; stroke-width: 0.522962; stroke-linejoin: miter"/>
   </g>
   <g id="patch_22">
    <path d="M 183.552448 239.88375 
L 190.263827 239.88375 
L 190.263827 239.88375 
L 183.552448 239.88375 
z
" clip-path="url(#pdb7bb7d1c0)" style="fill: #4169e1; fill-opacity: 0.5; stroke: #ffffff; stroke-width: 0.522962; stroke-linejoin: miter"/>
   </g>
   <g id="patch_23">
    <path d="M 190.263827 239.88375 
L 196.975206 239.88375 
L 196.975206 239.88375 
L 190.263827 239.88375 
z
" clip-path="url(#pdb7bb7d1c0)" style="fill: #4169e1; fill-opacity: 0.5; stroke: #ffffff; stroke-width: 0.522962; stroke-linejoin: miter"/>
   </g>
   <g id="patch_24">
    <path d="M 196.975206 239.88375 
L 203.686585 239.88375 
L 203.686585 239.88375 
L 196.975206 239.88375 
z
" clip-path="url(#pdb7bb7d1c0)" style="fill: #4169e1; fill-opacity: 0.5; stroke: #ffffff; stroke-width: 0.522962; stroke-linejoin: miter"/>
   </g>
   <g id="patch_25">
    <path d="M 203.686585 239.88375 
L 210.397964 239.88375 
L 210.397964 239.88375 
L 203.686585 239.88375 
z
" clip-path="url(#pdb7bb7d1c0)" style="fill: #4169e1; fill-opacity: 0.5; stroke: #ffffff; stroke-width: 0.522962; stroke-linejoin: miter"/>
   </g>
   <g id="patch_26">
    <path d="M 210.397964 239.88375 
L 217.109343 239.88375 
L 217.109343 239.654326 
L 210.397964 239.654326 
z
" clip-path="url(#pdb7bb7d1c0)" style="fill: #4169e1; fill-opacity: 0.5; stroke: #ffffff; stroke-width: 0.522962; stroke-linejoin: miter"/>
   </g>
   <g id="patch_27">
    <path d="M 217.109343 239.88375 
L 223.820722 239.88375 
L 223.820722 239.88375 
L 217.109343 239.88375 
z
" clip-path="url(#pdb7bb7d1c0)" style="fill: #4169e1; fill-opacity: 0.5; stroke: #ffffff; stroke-width: 0.522962; stroke-linejoin: miter"/>
   </g>
   <g id="patch_28">
    <path d="M 223.820722 239.88375 
L 230.532101 239.88375 
L 230.532101 239.654326 
L 223.820722 239.654326 
z
" clip-path="url(#pdb7bb7d1c0)" style="fill: #4169e1; fill-opacity: 0.5; stroke: #ffffff; stroke-width: 0.522962; stroke-linejoin: miter"/>
   </g>
   <g id="patch_29">
    <path d="M 230.532101 239.88375 
L 237.243479 239.88375 
L 237.243479 239.88375 
L 230.532101 239.88375 
z
" clip-path="url(#pdb7bb7d1c0)" style="fill: #4169e1; fill-opacity: 0.5; stroke: #ffffff; stroke-width: 0.522962; stroke-linejoin: miter"/>
   </g>
   <g id="patch_30">
    <path d="M 237.243479 239.88375 
L 243.954858 239.88375 
L 243.954858 239.88375 
L 237.243479 239.88375 
z
" clip-path="url(#pdb7bb7d1c0)" style="fill: #4169e1; fill-opacity: 0.5; stroke: #ffffff; stroke-width: 0.522962; stroke-linejoin: miter"/>
   </g>
   <g id="patch_31">
    <path d="M 243.954858 239.88375 
L 250.666237 239.88375 
L 250.666237 239.654326 
L 243.954858 239.654326 
z
" clip-path="url(#pdb7bb7d1c0)" style="fill: #4169e1; fill-opacity: 0.5; stroke: #ffffff; stroke-width: 0.522962; stroke-linejoin: miter"/>
   </g>
   <g id="patch_32">
    <path d="M 250.666237 239.88375 
L 257.377616 239.88375 
L 257.377616 239.654326 
L 250.666237 239.654326 
z
" clip-path="url(#pdb7bb7d1c0)" style="fill: #4169e1; fill-opacity: 0.5; stroke: #ffffff; stroke-width: 0.522962; stroke-linejoin: miter"/>
   </g>
   <g id="patch_33">
    <path d="M 257.377616 239.88375 
L 264.088995 239.88375 
L 264.088995 239.88375 
L 257.377616 239.88375 
z
" clip-path="url(#pdb7bb7d1c0)" style="fill: #4169e1; fill-opacity: 0.5; stroke: #ffffff; stroke-width: 0.522962; stroke-linejoin: miter"/>
   </g>
   <g id="patch_34">
    <path d="M 264.088995 239.88375 
L 270.800374 239.88375 
L 270.800374 239.654326 
L 264.088995 239.654326 
z
" clip-path="url(#pdb7bb7d1c0)" style="fill: #4169e1; fill-opacity: 0.5; stroke: #ffffff; stroke-width: 0.522962; stroke-linejoin: miter"/>
   </g>
   <g id="patch_35">
    <path d="M 270.800374 239.88375 
L 277.511753 239.88375 
L 277.511753 239.88375 
L 270.800374 239.88375 
z
" clip-path="url(#pdb7bb7d1c0)" style="fill: #4169e1; fill-opacity: 0.5; stroke: #ffffff; stroke-width: 0.522962; stroke-linejoin: miter"/>
   </g>
   <g id="patch_36">
    <path d="M 277.511753 239.88375 
L 284.223131 239.88375 
L 284.223131 239.195477 
L 277.511753 239.195477 
z
" clip-path="url(#pdb7bb7d1c0)" style="fill: #4169e1; fill-opacity: 0.5; stroke: #ffffff; stroke-width: 0.522962; stroke-linejoin: miter"/>
   </g>
   <g id="patch_37">
    <path d="M 284.223131 239.88375 
L 290.93451 239.88375 
L 290.93451 239.654326 
L 284.223131 239.654326 
z
" clip-path="url(#pdb7bb7d1c0)" style="fill: #4169e1; fill-opacity: 0.5; stroke: #ffffff; stroke-width: 0.522962; stroke-linejoin: miter"/>
   </g>
   <g id="patch_38">
    <path d="M 290.93451 239.88375 
L 297.645889 239.88375 
L 297.645889 239.88375 
L 290.93451 239.88375 
z
" clip-path="url(#pdb7bb7d1c0)" style="fill: #4169e1; fill-opacity: 0.5; stroke: #ffffff; stroke-width: 0.522962; stroke-linejoin: miter"/>
   </g>
   <g id="patch_39">
    <path d="M 297.645889 239.88375 
L 304.357268 239.88375 
L 304.357268 239.88375 
L 297.645889 239.88375 
z
" clip-path="url(#pdb7bb7d1c0)" style="fill: #4169e1; fill-opacity: 0.5; stroke: #ffffff; stroke-width: 0.522962; stroke-linejoin: miter"/>
   </g>
   <g id="patch_40">
    <path d="M 304.357268 239.88375 
L 311.068647 239.88375 
L 311.068647 239.424901 
L 304.357268 239.424901 
z
" clip-path="url(#pdb7bb7d1c0)" style="fill: #4169e1; fill-opacity: 0.5; stroke: #ffffff; stroke-width: 0.522962; stroke-linejoin: miter"/>
   </g>
   <g id="patch_41">
    <path d="M 311.068647 239.88375 
L 317.780026 239.88375 
L 317.780026 239.654326 
L 311.068647 239.654326 
z
" clip-path="url(#pdb7bb7d1c0)" style="fill: #4169e1; fill-opacity: 0.5; stroke: #ffffff; stroke-width: 0.522962; stroke-linejoin: miter"/>
   </g>
   <g id="patch_42">
    <path d="M 317.780026 239.88375 
L 324.491405 239.88375 
L 324.491405 239.195477 
L 317.780026 239.195477 
z
" clip-path="url(#pdb7bb7d1c0)" style="fill: #4169e1; fill-opacity: 0.5; stroke: #ffffff; stroke-width: 0.522962; stroke-linejoin: miter"/>
   </g>
   <g id="patch_43">
    <path d="M 324.491405 239.88375 
L 331.202784 239.88375 
L 331.202784 239.424901 
L 324.491405 239.424901 
z
" clip-path="url(#pdb7bb7d1c0)" style="fill: #4169e1; fill-opacity: 0.5; stroke: #ffffff; stroke-width: 0.522962; stroke-linejoin: miter"/>
   </g>
   <g id="patch_44">
    <path d="M 331.202784 239.88375 
L 337.914162 239.88375 
L 337.914162 239.654326 
L 331.202784 239.654326 
z
" clip-path="url(#pdb7bb7d1c0)" style="fill: #4169e1; fill-opacity: 0.5; stroke: #ffffff; stroke-width: 0.522962; stroke-linejoin: miter"/>
   </g>
   <g id="patch_45">
    <path d="M 337.914162 239.88375 
L 344.625541 239.88375 
L 344.625541 238.736628 
L 337.914162 238.736628 
z
" clip-path="url(#pdb7bb7d1c0)" style="fill: #4169e1; fill-opacity: 0.5; stroke: #ffffff; stroke-width: 0.522962; stroke-linejoin: miter"/>
   </g>
   <g id="patch_46">
    <path d="M 344.625541 239.88375 
L 351.33692 239.88375 
L 351.33692 238.966052 
L 344.625541 238.966052 
z
" clip-path="url(#pdb7bb7d1c0)" style="fill: #4169e1; fill-opacity: 0.5; stroke: #ffffff; stroke-width: 0.522962; stroke-linejoin: miter"/>
   </g>
   <g id="patch_47">
    <path d="M 351.33692 239.88375 
L 358.048299 239.88375 
L 358.048299 239.195477 
L 351.33692 239.195477 
z
" clip-path="url(#pdb7bb7d1c0)" style="fill: #4169e1; fill-opacity: 0.5; stroke: #ffffff; stroke-width: 0.522962; stroke-linejoin: miter"/>
   </g>
   <g id="patch_48">
    <path d="M 358.048299 239.88375 
L 364.759678 239.88375 
L 364.759678 238.736628 
L 358.048299 238.736628 
z
" clip-path="url(#pdb7bb7d1c0)" style="fill: #4169e1; fill-opacity: 0.5; stroke: #ffffff; stroke-width: 0.522962; stroke-linejoin: miter"/>
   </g>
   <g id="patch_49">
    <path d="M 364.759678 239.88375 
L 371.471057 239.88375 
L 371.471057 238.736628 
L 364.759678 238.736628 
z
" clip-path="url(#pdb7bb7d1c0)" style="fill: #4169e1; fill-opacity: 0.5; stroke: #ffffff; stroke-width: 0.522962; stroke-linejoin: miter"/>
   </g>
   <g id="patch_50">
    <path d="M 371.471057 239.88375 
L 378.182436 239.88375 
L 378.182436 237.81893 
L 371.471057 237.81893 
z
" clip-path="url(#pdb7bb7d1c0)" style="fill: #4169e1; fill-opacity: 0.5; stroke: #ffffff; stroke-width: 0.522962; stroke-linejoin: miter"/>
   </g>
   <g id="patch_51">
    <path d="M 378.182436 239.88375 
L 384.893814 239.88375 
L 384.893814 238.277779 
L 378.182436 238.277779 
z
" clip-path="url(#pdb7bb7d1c0)" style="fill: #4169e1; fill-opacity: 0.5; stroke: #ffffff; stroke-width: 0.522962; stroke-linejoin: miter"/>
   </g>
   <g id="patch_52">
    <path d="M 384.893814 239.88375 
L 391.605193 239.88375 
L 391.605193 237.360081 
L 384.893814 237.360081 
z
" clip-path="url(#pdb7bb7d1c0)" style="fill: #4169e1; fill-opacity: 0.5; stroke: #ffffff; stroke-width: 0.522962; stroke-linejoin: miter"/>
   </g>
   <g id="patch_53">
    <path d="M 391.605193 239.88375 
L 398.316572 239.88375 
L 398.316572 238.277779 
L 391.605193 238.277779 
z
" clip-path="url(#pdb7bb7d1c0)" style="fill: #4169e1; fill-opacity: 0.5; stroke: #ffffff; stroke-width: 0.522962; stroke-linejoin: miter"/>
   </g>
   <g id="patch_54">
    <path d="M 398.316572 239.88375 
L 405.027951 239.88375 
L 405.027951 236.442383 
L 398.316572 236.442383 
z
" clip-path="url(#pdb7bb7d1c0)" style="fill: #4169e1; fill-opacity: 0.5; stroke: #ffffff; stroke-width: 0.522962; stroke-linejoin: miter"/>
   </g>
   <g id="patch_55">
    <path d="M 405.027951 239.88375 
L 411.73933 239.88375 
L 411.73933 236.442383 
L 405.027951 236.442383 
z
" clip-path="url(#pdb7bb7d1c0)" style="fill: #4169e1; fill-opacity: 0.5; stroke: #ffffff; stroke-width: 0.522962; stroke-linejoin: miter"/>
   </g>
   <g id="patch_56">
    <path d="M 411.73933 239.88375 
L 418.450709 239.88375 
L 418.450709 235.754109 
L 411.73933 235.754109 
z
" clip-path="url(#pdb7bb7d1c0)" style="fill: #4169e1; fill-opacity: 0.5; stroke: #ffffff; stroke-width: 0.522962; stroke-linejoin: miter"/>
   </g>
   <g id="patch_57">
    <path d="M 418.450709 239.88375 
L 425.162088 239.88375 
L 425.162088 234.377563 
L 418.450709 234.377563 
z
" clip-path="url(#pdb7bb7d1c0)" style="fill: #4169e1; fill-opacity: 0.5; stroke: #ffffff; stroke-width: 0.522962; stroke-linejoin: miter"/>
   </g>
   <g id="patch_58">
    <path d="M 425.162088 239.88375 
L 431.873466 239.88375 
L 431.873466 235.983534 
L 425.162088 235.983534 
z
" clip-path="url(#pdb7bb7d1c0)" style="fill: #4169e1; fill-opacity: 0.5; stroke: #ffffff; stroke-width: 0.522962; stroke-linejoin: miter"/>
   </g>
   <g id="patch_59">
    <path d="M 431.873466 239.88375 
L 438.584845 239.88375 
L 438.584845 233.459865 
L 431.873466 233.459865 
z
" clip-path="url(#pdb7bb7d1c0)" style="fill: #4169e1; fill-opacity: 0.5; stroke: #ffffff; stroke-width: 0.522962; stroke-linejoin: miter"/>
   </g>
   <g id="patch_60">
    <path d="M 438.584845 239.88375 
L 445.296224 239.88375 
L 445.296224 231.624469 
L 438.584845 231.624469 
z
" clip-path="url(#pdb7bb7d1c0)" style="fill: #4169e1; fill-opacity: 0.5; stroke: #ffffff; stroke-width: 0.522962; stroke-linejoin: miter"/>
   </g>
   <g id="patch_61">
    <path d="M 445.296224 239.88375 
L 452.007603 239.88375 
L 452.007603 234.606987 
L 445.296224 234.606987 
z
" clip-path="url(#pdb7bb7d1c0)" style="fill: #4169e1; fill-opacity: 0.5; stroke: #ffffff; stroke-width: 0.522962; stroke-linejoin: miter"/>
   </g>
   <g id="patch_62">
    <path d="M 452.007603 239.88375 
L 458.718982 239.88375 
L 458.718982 233.001016 
L 452.007603 233.001016 
z
" clip-path="url(#pdb7bb7d1c0)" style="fill: #4169e1; fill-opacity: 0.5; stroke: #ffffff; stroke-width: 0.522962; stroke-linejoin: miter"/>
   </g>
   <g id="patch_63">
    <path d="M 458.718982 239.88375 
L 465.430361 239.88375 
L 465.430361 228.412526 
L 458.718982 228.412526 
z
" clip-path="url(#pdb7bb7d1c0)" style="fill: #4169e1; fill-opacity: 0.5; stroke: #ffffff; stroke-width: 0.522962; stroke-linejoin: miter"/>
   </g>
   <g id="patch_64">
    <path d="M 465.430361 239.88375 
L 472.14174 239.88375 
L 472.14174 231.16562 
L 465.430361 231.16562 
z
" clip-path="url(#pdb7bb7d1c0)" style="fill: #4169e1; fill-opacity: 0.5; stroke: #ffffff; stroke-width: 0.522962; stroke-linejoin: miter"/>
   </g>
   <g id="patch_65">
    <path d="M 472.14174 239.88375 
L 478.853119 239.88375 
L 478.853119 228.641951 
L 472.14174 228.641951 
z
" clip-path="url(#pdb7bb7d1c0)" style="fill: #4169e1; fill-opacity: 0.5; stroke: #ffffff; stroke-width: 0.522962; stroke-linejoin: miter"/>
   </g>
   <g id="patch_66">
    <path d="M 478.853119 239.88375 
L 485.564497 239.88375 
L 485.564497 233.001016 
L 478.853119 233.001016 
z
" clip-path="url(#pdb7bb7d1c0)" style="fill: #4169e1; fill-opacity: 0.5; stroke: #ffffff; stroke-width: 0.522962; stroke-linejoin: miter"/>
   </g>
   <g id="patch_67">
    <path d="M 485.564497 239.88375 
L 492.275876 239.88375 
L 492.275876 229.789073 
L 485.564497 229.789073 
z
" clip-path="url(#pdb7bb7d1c0)" style="fill: #4169e1; fill-opacity: 0.5; stroke: #ffffff; stroke-width: 0.522962; stroke-linejoin: miter"/>
   </g>
   <g id="patch_68">
    <path d="M 492.275876 239.88375 
L 498.987255 239.88375 
L 498.987255 230.936195 
L 492.275876 230.936195 
z
" clip-path="url(#pdb7bb7d1c0)" style="fill: #4169e1; fill-opacity: 0.5; stroke: #ffffff; stroke-width: 0.522962; stroke-linejoin: miter"/>
   </g>
   <g id="patch_69">
    <path d="M 498.987255 239.88375 
L 505.698634 239.88375 
L 505.698634 232.771591 
L 498.987255 232.771591 
z
" clip-path="url(#pdb7bb7d1c0)" style="fill: #4169e1; fill-opacity: 0.5; stroke: #ffffff; stroke-width: 0.522962; stroke-linejoin: miter"/>
   </g>
   <g id="patch_70">
    <path d="M 505.698634 239.88375 
L 512.410013 239.88375 
L 512.410013 232.312742 
L 505.698634 232.312742 
z
" clip-path="url(#pdb7bb7d1c0)" style="fill: #4169e1; fill-opacity: 0.5; stroke: #ffffff; stroke-width: 0.522962; stroke-linejoin: miter"/>
   </g>
   <g id="patch_71">
    <path d="M 512.410013 239.88375 
L 519.121392 239.88375 
L 519.121392 231.16562 
L 512.410013 231.16562 
z
" clip-path="url(#pdb7bb7d1c0)" style="fill: #4169e1; fill-opacity: 0.5; stroke: #ffffff; stroke-width: 0.522962; stroke-linejoin: miter"/>
   </g>
   <g id="patch_72">
    <path d="M 519.121392 239.88375 
L 525.832771 239.88375 
L 525.832771 230.936195 
L 519.121392 230.936195 
z
" clip-path="url(#pdb7bb7d1c0)" style="fill: #4169e1; fill-opacity: 0.5; stroke: #ffffff; stroke-width: 0.522962; stroke-linejoin: miter"/>
   </g>
   <g id="patch_73">
    <path d="M 525.832771 239.88375 
L 532.544149 239.88375 
L 532.544149 225.888857 
L 525.832771 225.888857 
z
" clip-path="url(#pdb7bb7d1c0)" style="fill: #4169e1; fill-opacity: 0.5; stroke: #ffffff; stroke-width: 0.522962; stroke-linejoin: miter"/>
   </g>
   <g id="patch_74">
    <path d="M 532.544149 239.88375 
L 539.255528 239.88375 
L 539.255528 226.57713 
L 532.544149 226.57713 
z
" clip-path="url(#pdb7bb7d1c0)" style="fill: #4169e1; fill-opacity: 0.5; stroke: #ffffff; stroke-width: 0.522962; stroke-linejoin: miter"/>
   </g>
   <g id="patch_75">
    <path d="M 539.255528 239.88375 
L 545.966907 239.88375 
L 545.966907 229.1008 
L 539.255528 229.1008 
z
" clip-path="url(#pdb7bb7d1c0)" style="fill: #4169e1; fill-opacity: 0.5; stroke: #ffffff; stroke-width: 0.522962; stroke-linejoin: miter"/>
   </g>
   <g id="patch_76">
    <path d="M 545.966907 239.88375 
L 552.678286 239.88375 
L 552.678286 225.430008 
L 545.966907 225.430008 
z
" clip-path="url(#pdb7bb7d1c0)" style="fill: #4169e1; fill-opacity: 0.5; stroke: #ffffff; stroke-width: 0.522962; stroke-linejoin: miter"/>
   </g>
   <g id="patch_77">
    <path d="M 552.678286 239.88375 
L 559.389665 239.88375 
L 559.389665 226.806555 
L 552.678286 226.806555 
z
" clip-path="url(#pdb7bb7d1c0)" style="fill: #4169e1; fill-opacity: 0.5; stroke: #ffffff; stroke-width: 0.522962; stroke-linejoin: miter"/>
   </g>
   <g id="patch_78">
    <path d="M 559.389665 239.88375 
L 566.101044 239.88375 
L 566.101044 219.923821 
L 559.389665 219.923821 
z
" clip-path="url(#pdb7bb7d1c0)" style="fill: #4169e1; fill-opacity: 0.5; stroke: #ffffff; stroke-width: 0.522962; stroke-linejoin: miter"/>
   </g>
   <g id="patch_79">
    <path d="M 566.101044 239.88375 
L 572.812423 239.88375 
L 572.812423 213.958784 
L 566.101044 213.958784 
z
" clip-path="url(#pdb7bb7d1c0)" style="fill: #4169e1; fill-opacity: 0.5; stroke: #ffffff; stroke-width: 0.522962; stroke-linejoin: miter"/>
   </g>
   <g id="patch_80">
    <path d="M 572.812423 239.88375 
L 579.523802 239.88375 
L 579.523802 200.193316 
L 572.812423 200.193316 
z
" clip-path="url(#pdb7bb7d1c0)" style="fill: #4169e1; fill-opacity: 0.5; stroke: #ffffff; stroke-width: 0.522962; stroke-linejoin: miter"/>
   </g>
   <g id="patch_81">
    <path d="M 579.523802 239.88375 
L 586.23518 239.88375 
L 586.23518 180.921659 
L 579.523802 180.921659 
z
" clip-path="url(#pdb7bb7d1c0)" style="fill: #4169e1; fill-opacity: 0.5; stroke: #ffffff; stroke-width: 0.522962; stroke-linejoin: miter"/>
   </g>
   <g id="patch_82">
    <path d="M 586.23518 239.88375 
L 592.946559 239.88375 
L 592.946559 151.555326 
L 586.23518 151.555326 
z
" clip-path="url(#pdb7bb7d1c0)" style="fill: #4169e1; fill-opacity: 0.5; stroke: #ffffff; stroke-width: 0.522962; stroke-linejoin: miter"/>
   </g>
   <g id="patch_83">
    <path d="M 592.946559 239.88375 
L 599.657938 239.88375 
L 599.657938 115.076835 
L 592.946559 115.076835 
z
" clip-path="url(#pdb7bb7d1c0)" style="fill: #4169e1; fill-opacity: 0.5; stroke: #ffffff; stroke-width: 0.522962; stroke-linejoin: miter"/>
   </g>
   <g id="patch_84">
    <path d="M 599.657938 239.88375 
L 606.369317 239.88375 
L 606.369317 99.705395 
L 599.657938 99.705395 
z
" clip-path="url(#pdb7bb7d1c0)" style="fill: #4169e1; fill-opacity: 0.5; stroke: #ffffff; stroke-width: 0.522962; stroke-linejoin: miter"/>
   </g>
   <g id="patch_85">
    <path d="M 606.369317 239.88375 
L 613.080696 239.88375 
L 613.080696 56.803018 
L 606.369317 56.803018 
z
" clip-path="url(#pdb7bb7d1c0)" style="fill: #4169e1; fill-opacity: 0.5; stroke: #ffffff; stroke-width: 0.522962; stroke-linejoin: miter"/>
   </g>
   <g id="patch_86">
    <path d="M 613.080696 239.88375 
L 619.792075 239.88375 
L 619.792075 23.765893 
L 613.080696 23.765893 
z
" clip-path="url(#pdb7bb7d1c0)" style="fill: #4169e1; fill-opacity: 0.5; stroke: #ffffff; stroke-width: 0.522962; stroke-linejoin: miter"/>
   </g>
   <g id="patch_87">
    <path d="M 619.792075 239.88375 
L 626.503454 239.88375 
L 626.503454 33.631145 
L 619.792075 33.631145 
z
" clip-path="url(#pdb7bb7d1c0)" style="fill: #4169e1; fill-opacity: 0.5; stroke: #ffffff; stroke-width: 0.522962; stroke-linejoin: miter"/>
   </g>
   <g id="patch_88">
    <path d="M 626.503454 239.88375 
L 633.214832 239.88375 
L 633.214832 141.919498 
L 626.503454 141.919498 
z
" clip-path="url(#pdb7bb7d1c0)" style="fill: #4169e1; fill-opacity: 0.5; stroke: #ffffff; stroke-width: 0.522962; stroke-linejoin: miter"/>
   </g>
   <g id="patch_89">
    <path d="M 633.214832 239.88375 
L 639.926211 239.88375 
L 639.926211 214.647058 
L 633.214832 214.647058 
z
" clip-path="url(#pdb7bb7d1c0)" style="fill: #4169e1; fill-opacity: 0.5; stroke: #ffffff; stroke-width: 0.522962; stroke-linejoin: miter"/>
   </g>
   <g id="patch_90">
    <path d="M 639.926211 239.88375 
L 646.63759 239.88375 
L 646.63759 225.659432 
L 639.926211 225.659432 
z
" clip-path="url(#pdb7bb7d1c0)" style="fill: #4169e1; fill-opacity: 0.5; stroke: #ffffff; stroke-width: 0.522962; stroke-linejoin: miter"/>
   </g>
   <g id="patch_91">
    <path d="M 646.63759 239.88375 
L 653.348969 239.88375 
L 653.348969 210.287992 
L 646.63759 210.287992 
z
" clip-path="url(#pdb7bb7d1c0)" style="fill: #4169e1; fill-opacity: 0.5; stroke: #ffffff; stroke-width: 0.522962; stroke-linejoin: miter"/>
   </g>
   <g id="patch_92">
    <path d="M 653.348969 239.88375 
L 660.060348 239.88375 
L 660.060348 178.168566 
L 653.348969 178.168566 
z
" clip-path="url(#pdb7bb7d1c0)" style="fill: #4169e1; fill-opacity: 0.5; stroke: #ffffff; stroke-width: 0.522962; stroke-linejoin: miter"/>
   </g>
   <g id="patch_93">
    <path d="M 660.060348 239.88375 
L 666.771727 239.88375 
L 666.771727 157.061514 
L 660.060348 157.061514 
z
" clip-path="url(#pdb7bb7d1c0)" style="fill: #4169e1; fill-opacity: 0.5; stroke: #ffffff; stroke-width: 0.522962; stroke-linejoin: miter"/>
   </g>
   <g id="patch_94">
    <path d="M 666.771727 239.88375 
L 673.483106 239.88375 
L 673.483106 143.066621 
L 666.771727 143.066621 
z
" clip-path="url(#pdb7bb7d1c0)" style="fill: #4169e1; fill-opacity: 0.5; stroke: #ffffff; stroke-width: 0.522962; stroke-linejoin: miter"/>
   </g>
   <g id="patch_95">
    <path d="M 673.483106 239.88375 
L 680.194485 239.88375 
L 680.194485 95.575754 
L 673.483106 95.575754 
z
" clip-path="url(#pdb7bb7d1c0)" style="fill: #4169e1; fill-opacity: 0.5; stroke: #ffffff; stroke-width: 0.522962; stroke-linejoin: miter"/>
   </g>
   <g id="patch_96">
    <path d="M 680.194485 239.88375 
L 686.905863 239.88375 
L 686.905863 74.927551 
L 680.194485 74.927551 
z
" clip-path="url(#pdb7bb7d1c0)" style="fill: #4169e1; fill-opacity: 0.5; stroke: #ffffff; stroke-width: 0.522962; stroke-linejoin: miter"/>
   </g>
   <g id="patch_97">
    <path d="M 686.905863 239.88375 
L 693.617242 239.88375 
L 693.617242 91.216689 
L 686.905863 91.216689 
z
" clip-path="url(#pdb7bb7d1c0)" style="fill: #4169e1; fill-opacity: 0.5; stroke: #ffffff; stroke-width: 0.522962; stroke-linejoin: miter"/>
   </g>
   <g id="patch_98">
    <path d="M 693.617242 239.88375 
L 700.328621 239.88375 
L 700.328621 153.161298 
L 693.617242 153.161298 
z
" clip-path="url(#pdb7bb7d1c0)" style="fill: #4169e1; fill-opacity: 0.5; stroke: #ffffff; stroke-width: 0.522962; stroke-linejoin: miter"/>
   </g>
   <g id="patch_99">
    <path d="M 700.328621 239.88375 
L 707.04 239.88375 
L 707.04 222.676914 
L 700.328621 222.676914 
z
" clip-path="url(#pdb7bb7d1c0)" style="fill: #4169e1; fill-opacity: 0.5; stroke: #ffffff; stroke-width: 0.522962; stroke-linejoin: miter"/>
   </g>
   <g id="line2d_12">
    <path d="M 56.03625 239.820613 
L 147.634768 239.825407 
L 173.805773 239.758178 
L 193.434026 239.865897 
L 307.932173 239.576747 
L 324.289052 239.378152 
L 340.64593 239.146375 
L 363.545559 238.663718 
L 389.716564 237.684534 
L 399.530691 236.961998 
L 415.887569 235.643586 
L 425.701696 234.835539 
L 442.058574 233.29547 
L 448.601325 232.687406 
L 464.958204 230.801915 
L 468.229579 230.631165 
L 474.77233 230.61463 
L 494.400584 231.248827 
L 504.214711 231.734838 
L 507.486087 231.695926 
L 510.757462 231.472622 
L 514.028838 231.070012 
L 520.571589 229.897129 
L 527.11434 228.625016 
L 533.657092 227.661236 
L 543.471219 226.611977 
L 546.742594 226.041145 
L 550.01397 225.18308 
L 553.285345 223.938431 
L 556.556721 222.208769 
L 559.828097 219.885776 
L 563.099472 216.840458 
L 566.370848 212.916047 
L 569.642224 207.929774 
L 572.913599 201.691068 
L 576.184975 194.041102 
L 579.456351 184.906525 
L 582.727726 174.343997 
L 585.999102 162.546625 
L 589.270477 149.800003 
L 595.813229 122.641945 
L 602.35598 95.125161 
L 605.627356 82.412627 
L 608.898731 71.739994 
L 612.170107 64.659071 
L 615.441482 62.878087 
L 618.712858 67.757815 
L 621.984234 79.744523 
L 625.255609 97.985483 
L 628.526985 120.335586 
L 631.798361 143.804495 
L 635.069736 165.288367 
L 638.341112 182.298546 
L 641.612487 193.421738 
L 644.883863 198.398472 
L 648.155239 197.88284 
L 651.426614 193.045598 
L 654.69799 185.179372 
L 657.969366 175.406459 
L 661.240741 164.535387 
L 671.054868 130.06576 
L 674.326244 119.809978 
L 677.597619 111.820128 
L 680.868995 107.44019 
L 684.140371 107.859511 
L 687.411746 113.740255 
L 690.683122 124.949642 
L 693.954497 140.49402 
L 703.768624 194.991424 
L 707.04 209.76699 
L 707.04 209.76699 
" clip-path="url(#pdb7bb7d1c0)" style="fill: none; stroke: #4169e1; stroke-width: 1.5; stroke-linecap: round"/>
   </g>
   <g id="patch_100">
    <path d="M 56.03625 239.88375 
L 56.03625 12.96 
" style="fill: none; stroke: #cccccc; stroke-width: 1.25; stroke-linejoin: miter; stroke-linecap: square"/>
   </g>
   <g id="patch_101">
    <path d="M 707.04 239.88375 
L 707.04 12.96 
" style="fill: none; stroke: #cccccc; stroke-width: 1.25; stroke-linejoin: miter; stroke-linecap: square"/>
   </g>
   <g id="patch_102">
    <path d="M 56.03625 239.88375 
L 707.04 239.88375 
" style="fill: none; stroke: #cccccc; stroke-width: 1.25; stroke-linejoin: miter; stroke-linecap: square"/>
   </g>
   <g id="patch_103">
    <path d="M 56.03625 12.96 
L 707.04 12.96 
" style="fill: none; stroke: #cccccc; stroke-width: 1.25; stroke-linejoin: miter; stroke-linecap: square"/>
   </g>
   <g id="legend_1">
    <g id="patch_104">
     <path d="M 63.73625 37.319844 
L 139.890625 37.319844 
Q 142.090625 37.319844 142.090625 35.119844 
L 142.090625 20.66 
Q 142.090625 18.46 139.890625 18.46 
L 63.73625 18.46 
Q 61.53625 18.46 61.53625 20.66 
L 61.53625 35.119844 
Q 61.53625 37.319844 63.73625 37.319844 
z
" style="fill: #ffffff; opacity: 0.8; stroke: #cccccc; stroke-linejoin: miter"/>
    </g>
    <g id="patch_105">
     <path d="M 65.93625 30.733594 
L 87.93625 30.733594 
L 87.93625 23.033594 
L 65.93625 23.033594 
z
" style="fill: #4169e1; fill-opacity: 0.5; stroke: #ffffff; stroke-width: 0.522962; stroke-linejoin: miter"/>
    </g>
    <g id="text_14">
     <!-- LSQUIC -->
     <g style="fill: #262626" transform="translate(96.73625 30.733594) scale(0.11 -0.11)">
      <defs>
       <path id="ArialMT-4c" d="M 469 0 
L 469 4581 
L 1075 4581 
L 1075 541 
L 3331 541 
L 3331 0 
L 469 0 
z
" transform="scale(0.015625)"/>
       <path id="ArialMT-53" d="M 288 1472 
L 859 1522 
Q 900 1178 1048 958 
Q 1197 738 1509 602 
Q 1822 466 2213 466 
Q 2559 466 2825 569 
Q 3091 672 3220 851 
Q 3350 1031 3350 1244 
Q 3350 1459 3225 1620 
Q 3100 1781 2813 1891 
Q 2628 1963 1997 2114 
Q 1366 2266 1113 2400 
Q 784 2572 623 2826 
Q 463 3081 463 3397 
Q 463 3744 659 4045 
Q 856 4347 1234 4503 
Q 1613 4659 2075 4659 
Q 2584 4659 2973 4495 
Q 3363 4331 3572 4012 
Q 3781 3694 3797 3291 
L 3216 3247 
Q 3169 3681 2898 3903 
Q 2628 4125 2100 4125 
Q 1550 4125 1298 3923 
Q 1047 3722 1047 3438 
Q 1047 3191 1225 3031 
Q 1400 2872 2139 2705 
Q 2878 2538 3153 2413 
Q 3553 2228 3743 1945 
Q 3934 1663 3934 1294 
Q 3934 928 3725 604 
Q 3516 281 3123 101 
Q 2731 -78 2241 -78 
Q 1619 -78 1198 103 
Q 778 284 539 648 
Q 300 1013 288 1472 
z
" transform="scale(0.015625)"/>
       <path id="ArialMT-51" d="M 3966 491 
Q 4388 200 4744 66 
L 4566 -356 
Q 4072 -178 3581 206 
Q 3072 -78 2456 -78 
Q 1834 -78 1328 222 
Q 822 522 548 1065 
Q 275 1609 275 2291 
Q 275 2969 550 3525 
Q 825 4081 1333 4372 
Q 1841 4663 2469 4663 
Q 3103 4663 3612 4361 
Q 4122 4059 4389 3517 
Q 4656 2975 4656 2294 
Q 4656 1728 4484 1276 
Q 4313 825 3966 491 
z
M 2631 1266 
Q 3156 1119 3497 828 
Q 4031 1316 4031 2294 
Q 4031 2850 3842 3265 
Q 3653 3681 3289 3911 
Q 2925 4141 2472 4141 
Q 1794 4141 1347 3677 
Q 900 3213 900 2291 
Q 900 1397 1342 919 
Q 1784 441 2472 441 
Q 2797 441 3084 563 
Q 2800 747 2484 825 
L 2631 1266 
z
" transform="scale(0.015625)"/>
       <path id="ArialMT-55" d="M 3500 4581 
L 4106 4581 
L 4106 1934 
Q 4106 1244 3950 837 
Q 3794 431 3386 176 
Q 2978 -78 2316 -78 
Q 1672 -78 1262 144 
Q 853 366 678 786 
Q 503 1206 503 1934 
L 503 4581 
L 1109 4581 
L 1109 1938 
Q 1109 1341 1220 1058 
Q 1331 775 1601 622 
Q 1872 469 2263 469 
Q 2931 469 3215 772 
Q 3500 1075 3500 1938 
L 3500 4581 
z
" transform="scale(0.015625)"/>
       <path id="ArialMT-49" d="M 597 0 
L 597 4581 
L 1203 4581 
L 1203 0 
L 597 0 
z
" transform="scale(0.015625)"/>
       <path id="ArialMT-43" d="M 3763 1606 
L 4369 1453 
Q 4178 706 3683 314 
Q 3188 -78 2472 -78 
Q 1731 -78 1267 223 
Q 803 525 561 1097 
Q 319 1669 319 2325 
Q 319 3041 592 3573 
Q 866 4106 1370 4382 
Q 1875 4659 2481 4659 
Q 3169 4659 3637 4309 
Q 4106 3959 4291 3325 
L 3694 3184 
Q 3534 3684 3231 3912 
Q 2928 4141 2469 4141 
Q 1941 4141 1586 3887 
Q 1231 3634 1087 3207 
Q 944 2781 944 2328 
Q 944 1744 1114 1308 
Q 1284 872 1643 656 
Q 2003 441 2422 441 
Q 2931 441 3284 734 
Q 3638 1028 3763 1606 
z
" transform="scale(0.015625)"/>
      </defs>
      <use xlink:href="#ArialMT-4c"/>
      <use xlink:href="#ArialMT-53" x="55.615234"/>
      <use xlink:href="#ArialMT-51" x="122.314453"/>
      <use xlink:href="#ArialMT-55" x="200.097656"/>
      <use xlink:href="#ArialMT-49" x="272.314453"/>
      <use xlink:href="#ArialMT-43" x="300.097656"/>
     </g>
    </g>
   </g>
  </g>
 </g>
 <defs>
  <clipPath id="pdb7bb7d1c0">
   <rect x="56.03625" y="12.96" width="651.00375" height="226.92375"/>
  </clipPath>
 </defs>
</svg>
