<?xml version="1.0" encoding="utf-8" standalone="no"?>
<!DOCTYPE svg PUBLIC "-//W3C//DTD SVG 1.1//EN"
  "http://www.w3.org/Graphics/SVG/1.1/DTD/svg11.dtd">
<svg xmlns:xlink="http://www.w3.org/1999/xlink" width="720pt" height="288pt" viewBox="0 0 720 288" xmlns="http://www.w3.org/2000/svg" version="1.1">
 <metadata>
  <rdf:RDF xmlns:dc="http://purl.org/dc/elements/1.1/" xmlns:cc="http://creativecommons.org/ns#" xmlns:rdf="http://www.w3.org/1999/02/22-rdf-syntax-ns#">
   <cc:Work>
    <dc:type rdf:resource="http://purl.org/dc/dcmitype/StillImage"/>
    <dc:date>2023-12-13T11:14:27.579164</dc:date>
    <dc:format>image/svg+xml</dc:format>
    <dc:creator>
     <cc:Agent>
      <dc:title>Matplotlib v3.8.1, https://matplotlib.org/</dc:title>
     </cc:Agent>
    </dc:creator>
   </cc:Work>
  </rdf:RDF>
 </metadata>
 <defs>
  <style type="text/css">*{stroke-linejoin: round; stroke-linecap: butt}</style>
 </defs>
 <g id="figure_1">
  <g id="patch_1">
   <path d="M 0 288 
L 720 288 
L 720 0 
L 0 0 
z
" style="fill: #ffffff"/>
  </g>
  <g id="axes_1">
   <g id="patch_2">
    <path d="M 56.08125 239.88375 
L 707.04 239.88375 
L 707.04 12.96 
L 56.08125 12.96 
z
" style="fill: #ffffff"/>
   </g>
   <g id="matplotlib.axis_1">
    <g id="xtick_1">
     <g id="line2d_1">
      <path d="M 57.557601 239.88375 
L 57.557601 12.96 
" clip-path="url(#p9d90ce2373)" style="fill: none; stroke: #cccccc; stroke-linecap: round"/>
     </g>
     <g id="text_1">
      <!-- 20000 -->
      <g style="fill: #262626" transform="translate(42.265023 257.257344) scale(0.11 -0.11)">
       <defs>
        <path id="ArialMT-32" d="M 3222 541 
L 3222 0 
L 194 0 
Q 188 203 259 391 
Q 375 700 629 1000 
Q 884 1300 1366 1694 
Q 2113 2306 2375 2664 
Q 2638 3022 2638 3341 
Q 2638 3675 2398 3904 
Q 2159 4134 1775 4134 
Q 1369 4134 1125 3890 
Q 881 3647 878 3216 
L 300 3275 
Q 359 3922 746 4261 
Q 1134 4600 1788 4600 
Q 2447 4600 2831 4234 
Q 3216 3869 3216 3328 
Q 3216 3053 3103 2787 
Q 2991 2522 2730 2228 
Q 2469 1934 1863 1422 
Q 1356 997 1212 845 
Q 1069 694 975 541 
L 3222 541 
z
" transform="scale(0.015625)"/>
        <path id="ArialMT-30" d="M 266 2259 
Q 266 3072 433 3567 
Q 600 4063 929 4331 
Q 1259 4600 1759 4600 
Q 2128 4600 2406 4451 
Q 2684 4303 2865 4023 
Q 3047 3744 3150 3342 
Q 3253 2941 3253 2259 
Q 3253 1453 3087 958 
Q 2922 463 2592 192 
Q 2263 -78 1759 -78 
Q 1097 -78 719 397 
Q 266 969 266 2259 
z
M 844 2259 
Q 844 1131 1108 757 
Q 1372 384 1759 384 
Q 2147 384 2411 759 
Q 2675 1134 2675 2259 
Q 2675 3391 2411 3762 
Q 2147 4134 1753 4134 
Q 1366 4134 1134 3806 
Q 844 3388 844 2259 
z
" transform="scale(0.015625)"/>
       </defs>
       <use xlink:href="#ArialMT-32"/>
       <use xlink:href="#ArialMT-30" x="55.615234"/>
       <use xlink:href="#ArialMT-30" x="111.230469"/>
       <use xlink:href="#ArialMT-30" x="166.845703"/>
       <use xlink:href="#ArialMT-30" x="222.460938"/>
      </g>
     </g>
    </g>
    <g id="xtick_2">
     <g id="line2d_2">
      <path d="M 136.468057 239.88375 
L 136.468057 12.96 
" clip-path="url(#p9d90ce2373)" style="fill: none; stroke: #cccccc; stroke-linecap: round"/>
     </g>
     <g id="text_2">
      <!-- 22500 -->
      <g style="fill: #262626" transform="translate(121.175479 257.257344) scale(0.11 -0.11)">
       <defs>
        <path id="ArialMT-35" d="M 266 1200 
L 856 1250 
Q 922 819 1161 601 
Q 1400 384 1738 384 
Q 2144 384 2425 690 
Q 2706 997 2706 1503 
Q 2706 1984 2436 2262 
Q 2166 2541 1728 2541 
Q 1456 2541 1237 2417 
Q 1019 2294 894 2097 
L 366 2166 
L 809 4519 
L 3088 4519 
L 3088 3981 
L 1259 3981 
L 1013 2750 
Q 1425 3038 1878 3038 
Q 2478 3038 2890 2622 
Q 3303 2206 3303 1553 
Q 3303 931 2941 478 
Q 2500 -78 1738 -78 
Q 1113 -78 717 272 
Q 322 622 266 1200 
z
" transform="scale(0.015625)"/>
       </defs>
       <use xlink:href="#ArialMT-32"/>
       <use xlink:href="#ArialMT-32" x="55.615234"/>
       <use xlink:href="#ArialMT-35" x="111.230469"/>
       <use xlink:href="#ArialMT-30" x="166.845703"/>
       <use xlink:href="#ArialMT-30" x="222.460938"/>
      </g>
     </g>
    </g>
    <g id="xtick_3">
     <g id="line2d_3">
      <path d="M 215.378513 239.88375 
L 215.378513 12.96 
" clip-path="url(#p9d90ce2373)" style="fill: none; stroke: #cccccc; stroke-linecap: round"/>
     </g>
     <g id="text_3">
      <!-- 25000 -->
      <g style="fill: #262626" transform="translate(200.085935 257.257344) scale(0.11 -0.11)">
       <use xlink:href="#ArialMT-32"/>
       <use xlink:href="#ArialMT-35" x="55.615234"/>
       <use xlink:href="#ArialMT-30" x="111.230469"/>
       <use xlink:href="#ArialMT-30" x="166.845703"/>
       <use xlink:href="#ArialMT-30" x="222.460938"/>
      </g>
     </g>
    </g>
    <g id="xtick_4">
     <g id="line2d_4">
      <path d="M 294.288969 239.88375 
L 294.288969 12.96 
" clip-path="url(#p9d90ce2373)" style="fill: none; stroke: #cccccc; stroke-linecap: round"/>
     </g>
     <g id="text_4">
      <!-- 27500 -->
      <g style="fill: #262626" transform="translate(278.996391 257.257344) scale(0.11 -0.11)">
       <defs>
        <path id="ArialMT-37" d="M 303 3981 
L 303 4522 
L 3269 4522 
L 3269 4084 
Q 2831 3619 2401 2847 
Q 1972 2075 1738 1259 
Q 1569 684 1522 0 
L 944 0 
Q 953 541 1156 1306 
Q 1359 2072 1739 2783 
Q 2119 3494 2547 3981 
L 303 3981 
z
" transform="scale(0.015625)"/>
       </defs>
       <use xlink:href="#ArialMT-32"/>
       <use xlink:href="#ArialMT-37" x="55.615234"/>
       <use xlink:href="#ArialMT-35" x="111.230469"/>
       <use xlink:href="#ArialMT-30" x="166.845703"/>
       <use xlink:href="#ArialMT-30" x="222.460938"/>
      </g>
     </g>
    </g>
    <g id="xtick_5">
     <g id="line2d_5">
      <path d="M 373.199425 239.88375 
L 373.199425 12.96 
" clip-path="url(#p9d90ce2373)" style="fill: none; stroke: #cccccc; stroke-linecap: round"/>
     </g>
     <g id="text_5">
      <!-- 30000 -->
      <g style="fill: #262626" transform="translate(357.906847 257.257344) scale(0.11 -0.11)">
       <defs>
        <path id="ArialMT-33" d="M 269 1209 
L 831 1284 
Q 928 806 1161 595 
Q 1394 384 1728 384 
Q 2125 384 2398 659 
Q 2672 934 2672 1341 
Q 2672 1728 2419 1979 
Q 2166 2231 1775 2231 
Q 1616 2231 1378 2169 
L 1441 2663 
Q 1497 2656 1531 2656 
Q 1891 2656 2178 2843 
Q 2466 3031 2466 3422 
Q 2466 3731 2256 3934 
Q 2047 4138 1716 4138 
Q 1388 4138 1169 3931 
Q 950 3725 888 3313 
L 325 3413 
Q 428 3978 793 4289 
Q 1159 4600 1703 4600 
Q 2078 4600 2393 4439 
Q 2709 4278 2876 4000 
Q 3044 3722 3044 3409 
Q 3044 3113 2884 2869 
Q 2725 2625 2413 2481 
Q 2819 2388 3044 2092 
Q 3269 1797 3269 1353 
Q 3269 753 2831 336 
Q 2394 -81 1725 -81 
Q 1122 -81 723 278 
Q 325 638 269 1209 
z
" transform="scale(0.015625)"/>
       </defs>
       <use xlink:href="#ArialMT-33"/>
       <use xlink:href="#ArialMT-30" x="55.615234"/>
       <use xlink:href="#ArialMT-30" x="111.230469"/>
       <use xlink:href="#ArialMT-30" x="166.845703"/>
       <use xlink:href="#ArialMT-30" x="222.460938"/>
      </g>
     </g>
    </g>
    <g id="xtick_6">
     <g id="line2d_6">
      <path d="M 452.109881 239.88375 
L 452.109881 12.96 
" clip-path="url(#p9d90ce2373)" style="fill: none; stroke: #cccccc; stroke-linecap: round"/>
     </g>
     <g id="text_6">
      <!-- 32500 -->
      <g style="fill: #262626" transform="translate(436.817303 257.257344) scale(0.11 -0.11)">
       <use xlink:href="#ArialMT-33"/>
       <use xlink:href="#ArialMT-32" x="55.615234"/>
       <use xlink:href="#ArialMT-35" x="111.230469"/>
       <use xlink:href="#ArialMT-30" x="166.845703"/>
       <use xlink:href="#ArialMT-30" x="222.460938"/>
      </g>
     </g>
    </g>
    <g id="xtick_7">
     <g id="line2d_7">
      <path d="M 531.020337 239.88375 
L 531.020337 12.96 
" clip-path="url(#p9d90ce2373)" style="fill: none; stroke: #cccccc; stroke-linecap: round"/>
     </g>
     <g id="text_7">
      <!-- 35000 -->
      <g style="fill: #262626" transform="translate(515.727759 257.257344) scale(0.11 -0.11)">
       <use xlink:href="#ArialMT-33"/>
       <use xlink:href="#ArialMT-35" x="55.615234"/>
       <use xlink:href="#ArialMT-30" x="111.230469"/>
       <use xlink:href="#ArialMT-30" x="166.845703"/>
       <use xlink:href="#ArialMT-30" x="222.460938"/>
      </g>
     </g>
    </g>
    <g id="xtick_8">
     <g id="line2d_8">
      <path d="M 609.930793 239.88375 
L 609.930793 12.96 
" clip-path="url(#p9d90ce2373)" style="fill: none; stroke: #cccccc; stroke-linecap: round"/>
     </g>
     <g id="text_8">
      <!-- 37500 -->
      <g style="fill: #262626" transform="translate(594.638215 257.257344) scale(0.11 -0.11)">
       <use xlink:href="#ArialMT-33"/>
       <use xlink:href="#ArialMT-37" x="55.615234"/>
       <use xlink:href="#ArialMT-35" x="111.230469"/>
       <use xlink:href="#ArialMT-30" x="166.845703"/>
       <use xlink:href="#ArialMT-30" x="222.460938"/>
      </g>
     </g>
    </g>
    <g id="xtick_9">
     <g id="line2d_9">
      <path d="M 688.841249 239.88375 
L 688.841249 12.96 
" clip-path="url(#p9d90ce2373)" style="fill: none; stroke: #cccccc; stroke-linecap: round"/>
     </g>
     <g id="text_9">
      <!-- 40000 -->
      <g style="fill: #262626" transform="translate(673.548671 257.257344) scale(0.11 -0.11)">
       <defs>
        <path id="ArialMT-34" d="M 2069 0 
L 2069 1097 
L 81 1097 
L 81 1613 
L 2172 4581 
L 2631 4581 
L 2631 1613 
L 3250 1613 
L 3250 1097 
L 2631 1097 
L 2631 0 
L 2069 0 
z
M 2069 1613 
L 2069 3678 
L 634 1613 
L 2069 1613 
z
" transform="scale(0.015625)"/>
       </defs>
       <use xlink:href="#ArialMT-34"/>
       <use xlink:href="#ArialMT-30" x="55.615234"/>
       <use xlink:href="#ArialMT-30" x="111.230469"/>
       <use xlink:href="#ArialMT-30" x="166.845703"/>
       <use xlink:href="#ArialMT-30" x="222.460938"/>
      </g>
     </g>
    </g>
    <g id="text_10">
     <!-- Goodput (kbps) -->
     <g style="fill: #262626" transform="translate(340.208438 272.179219) scale(0.12 -0.12)">
      <defs>
       <path id="ArialMT-47" d="M 2638 1797 
L 2638 2334 
L 4578 2338 
L 4578 638 
Q 4131 281 3656 101 
Q 3181 -78 2681 -78 
Q 2006 -78 1454 211 
Q 903 500 622 1047 
Q 341 1594 341 2269 
Q 341 2938 620 3517 
Q 900 4097 1425 4378 
Q 1950 4659 2634 4659 
Q 3131 4659 3532 4498 
Q 3934 4338 4162 4050 
Q 4391 3763 4509 3300 
L 3963 3150 
Q 3859 3500 3706 3700 
Q 3553 3900 3268 4020 
Q 2984 4141 2638 4141 
Q 2222 4141 1919 4014 
Q 1616 3888 1430 3681 
Q 1244 3475 1141 3228 
Q 966 2803 966 2306 
Q 966 1694 1177 1281 
Q 1388 869 1791 669 
Q 2194 469 2647 469 
Q 3041 469 3416 620 
Q 3791 772 3984 944 
L 3984 1797 
L 2638 1797 
z
" transform="scale(0.015625)"/>
       <path id="ArialMT-6f" d="M 213 1659 
Q 213 2581 725 3025 
Q 1153 3394 1769 3394 
Q 2453 3394 2887 2945 
Q 3322 2497 3322 1706 
Q 3322 1066 3130 698 
Q 2938 331 2570 128 
Q 2203 -75 1769 -75 
Q 1072 -75 642 372 
Q 213 819 213 1659 
z
M 791 1659 
Q 791 1022 1069 705 
Q 1347 388 1769 388 
Q 2188 388 2466 706 
Q 2744 1025 2744 1678 
Q 2744 2294 2464 2611 
Q 2184 2928 1769 2928 
Q 1347 2928 1069 2612 
Q 791 2297 791 1659 
z
" transform="scale(0.015625)"/>
       <path id="ArialMT-64" d="M 2575 0 
L 2575 419 
Q 2259 -75 1647 -75 
Q 1250 -75 917 144 
Q 584 363 401 755 
Q 219 1147 219 1656 
Q 219 2153 384 2558 
Q 550 2963 881 3178 
Q 1213 3394 1622 3394 
Q 1922 3394 2156 3267 
Q 2391 3141 2538 2938 
L 2538 4581 
L 3097 4581 
L 3097 0 
L 2575 0 
z
M 797 1656 
Q 797 1019 1065 703 
Q 1334 388 1700 388 
Q 2069 388 2326 689 
Q 2584 991 2584 1609 
Q 2584 2291 2321 2609 
Q 2059 2928 1675 2928 
Q 1300 2928 1048 2622 
Q 797 2316 797 1656 
z
" transform="scale(0.015625)"/>
       <path id="ArialMT-70" d="M 422 -1272 
L 422 3319 
L 934 3319 
L 934 2888 
Q 1116 3141 1344 3267 
Q 1572 3394 1897 3394 
Q 2322 3394 2647 3175 
Q 2972 2956 3137 2557 
Q 3303 2159 3303 1684 
Q 3303 1175 3120 767 
Q 2938 359 2589 142 
Q 2241 -75 1856 -75 
Q 1575 -75 1351 44 
Q 1128 163 984 344 
L 984 -1272 
L 422 -1272 
z
M 931 1641 
Q 931 1000 1190 694 
Q 1450 388 1819 388 
Q 2194 388 2461 705 
Q 2728 1022 2728 1688 
Q 2728 2322 2467 2637 
Q 2206 2953 1844 2953 
Q 1484 2953 1207 2617 
Q 931 2281 931 1641 
z
" transform="scale(0.015625)"/>
       <path id="ArialMT-75" d="M 2597 0 
L 2597 488 
Q 2209 -75 1544 -75 
Q 1250 -75 995 37 
Q 741 150 617 320 
Q 494 491 444 738 
Q 409 903 409 1263 
L 409 3319 
L 972 3319 
L 972 1478 
Q 972 1038 1006 884 
Q 1059 663 1231 536 
Q 1403 409 1656 409 
Q 1909 409 2131 539 
Q 2353 669 2445 892 
Q 2538 1116 2538 1541 
L 2538 3319 
L 3100 3319 
L 3100 0 
L 2597 0 
z
" transform="scale(0.015625)"/>
       <path id="ArialMT-74" d="M 1650 503 
L 1731 6 
Q 1494 -44 1306 -44 
Q 1000 -44 831 53 
Q 663 150 594 308 
Q 525 466 525 972 
L 525 2881 
L 113 2881 
L 113 3319 
L 525 3319 
L 525 4141 
L 1084 4478 
L 1084 3319 
L 1650 3319 
L 1650 2881 
L 1084 2881 
L 1084 941 
Q 1084 700 1114 631 
Q 1144 563 1211 522 
Q 1278 481 1403 481 
Q 1497 481 1650 503 
z
" transform="scale(0.015625)"/>
       <path id="ArialMT-20" transform="scale(0.015625)"/>
       <path id="ArialMT-28" d="M 1497 -1347 
Q 1031 -759 709 28 
Q 388 816 388 1659 
Q 388 2403 628 3084 
Q 909 3875 1497 4659 
L 1900 4659 
Q 1522 4009 1400 3731 
Q 1209 3300 1100 2831 
Q 966 2247 966 1656 
Q 966 153 1900 -1347 
L 1497 -1347 
z
" transform="scale(0.015625)"/>
       <path id="ArialMT-6b" d="M 425 0 
L 425 4581 
L 988 4581 
L 988 1969 
L 2319 3319 
L 3047 3319 
L 1778 2088 
L 3175 0 
L 2481 0 
L 1384 1697 
L 988 1316 
L 988 0 
L 425 0 
z
" transform="scale(0.015625)"/>
       <path id="ArialMT-62" d="M 941 0 
L 419 0 
L 419 4581 
L 981 4581 
L 981 2947 
Q 1338 3394 1891 3394 
Q 2197 3394 2470 3270 
Q 2744 3147 2920 2923 
Q 3097 2700 3197 2384 
Q 3297 2069 3297 1709 
Q 3297 856 2875 390 
Q 2453 -75 1863 -75 
Q 1275 -75 941 416 
L 941 0 
z
M 934 1684 
Q 934 1088 1097 822 
Q 1363 388 1816 388 
Q 2184 388 2453 708 
Q 2722 1028 2722 1663 
Q 2722 2313 2464 2622 
Q 2206 2931 1841 2931 
Q 1472 2931 1203 2611 
Q 934 2291 934 1684 
z
" transform="scale(0.015625)"/>
       <path id="ArialMT-73" d="M 197 991 
L 753 1078 
Q 800 744 1014 566 
Q 1228 388 1613 388 
Q 2000 388 2187 545 
Q 2375 703 2375 916 
Q 2375 1106 2209 1216 
Q 2094 1291 1634 1406 
Q 1016 1563 777 1677 
Q 538 1791 414 1992 
Q 291 2194 291 2438 
Q 291 2659 392 2848 
Q 494 3038 669 3163 
Q 800 3259 1026 3326 
Q 1253 3394 1513 3394 
Q 1903 3394 2198 3281 
Q 2494 3169 2634 2976 
Q 2775 2784 2828 2463 
L 2278 2388 
Q 2241 2644 2061 2787 
Q 1881 2931 1553 2931 
Q 1166 2931 1000 2803 
Q 834 2675 834 2503 
Q 834 2394 903 2306 
Q 972 2216 1119 2156 
Q 1203 2125 1616 2013 
Q 2213 1853 2448 1751 
Q 2684 1650 2818 1456 
Q 2953 1263 2953 975 
Q 2953 694 2789 445 
Q 2625 197 2315 61 
Q 2006 -75 1616 -75 
Q 969 -75 630 194 
Q 291 463 197 991 
z
" transform="scale(0.015625)"/>
       <path id="ArialMT-29" d="M 791 -1347 
L 388 -1347 
Q 1322 153 1322 1656 
Q 1322 2244 1188 2822 
Q 1081 3291 891 3722 
Q 769 4003 388 4659 
L 791 4659 
Q 1378 3875 1659 3084 
Q 1900 2403 1900 1659 
Q 1900 816 1576 28 
Q 1253 -759 791 -1347 
z
" transform="scale(0.015625)"/>
      </defs>
      <use xlink:href="#ArialMT-47"/>
      <use xlink:href="#ArialMT-6f" x="77.783203"/>
      <use xlink:href="#ArialMT-6f" x="133.398438"/>
      <use xlink:href="#ArialMT-64" x="189.013672"/>
      <use xlink:href="#ArialMT-70" x="244.628906"/>
      <use xlink:href="#ArialMT-75" x="300.244141"/>
      <use xlink:href="#ArialMT-74" x="355.859375"/>
      <use xlink:href="#ArialMT-20" x="383.642578"/>
      <use xlink:href="#ArialMT-28" x="411.425781"/>
      <use xlink:href="#ArialMT-6b" x="444.726562"/>
      <use xlink:href="#ArialMT-62" x="494.726562"/>
      <use xlink:href="#ArialMT-70" x="550.341797"/>
      <use xlink:href="#ArialMT-73" x="605.957031"/>
      <use xlink:href="#ArialMT-29" x="655.957031"/>
     </g>
    </g>
   </g>
   <g id="matplotlib.axis_2">
    <g id="ytick_1">
     <g id="line2d_10">
      <path d="M 56.08125 239.88375 
L 707.04 239.88375 
" clip-path="url(#p9d90ce2373)" style="fill: none; stroke: #cccccc; stroke-linecap: round"/>
     </g>
     <g id="text_11">
      <!-- 0 -->
      <g style="fill: #262626" transform="translate(40.464219 243.820547) scale(0.11 -0.11)">
       <use xlink:href="#ArialMT-30"/>
      </g>
     </g>
    </g>
    <g id="ytick_2">
     <g id="line2d_11">
      <path d="M 56.08125 205.633693 
L 707.04 205.633693 
" clip-path="url(#p9d90ce2373)" style="fill: none; stroke: #cccccc; stroke-linecap: round"/>
     </g>
     <g id="text_12">
      <!-- 100 -->
      <g style="fill: #262626" transform="translate(28.230156 209.57049) scale(0.11 -0.11)">
       <defs>
        <path id="ArialMT-31" d="M 2384 0 
L 1822 0 
L 1822 3584 
Q 1619 3391 1289 3197 
Q 959 3003 697 2906 
L 697 3450 
Q 1169 3672 1522 3987 
Q 1875 4303 2022 4600 
L 2384 4600 
L 2384 0 
z
" transform="scale(0.015625)"/>
       </defs>
       <use xlink:href="#ArialMT-31"/>
       <use xlink:href="#ArialMT-30" x="55.615234"/>
       <use xlink:href="#ArialMT-30" x="111.230469"/>
      </g>
     </g>
    </g>
    <g id="ytick_3">
     <g id="line2d_12">
      <path d="M 56.08125 171.383637 
L 707.04 171.383637 
" clip-path="url(#p9d90ce2373)" style="fill: none; stroke: #cccccc; stroke-linecap: round"/>
     </g>
     <g id="text_13">
      <!-- 200 -->
      <g style="fill: #262626" transform="translate(28.230156 175.320434) scale(0.11 -0.11)">
       <use xlink:href="#ArialMT-32"/>
       <use xlink:href="#ArialMT-30" x="55.615234"/>
       <use xlink:href="#ArialMT-30" x="111.230469"/>
      </g>
     </g>
    </g>
    <g id="ytick_4">
     <g id="line2d_13">
      <path d="M 56.08125 137.13358 
L 707.04 137.13358 
" clip-path="url(#p9d90ce2373)" style="fill: none; stroke: #cccccc; stroke-linecap: round"/>
     </g>
     <g id="text_14">
      <!-- 300 -->
      <g style="fill: #262626" transform="translate(28.230156 141.070377) scale(0.11 -0.11)">
       <use xlink:href="#ArialMT-33"/>
       <use xlink:href="#ArialMT-30" x="55.615234"/>
       <use xlink:href="#ArialMT-30" x="111.230469"/>
      </g>
     </g>
    </g>
    <g id="ytick_5">
     <g id="line2d_14">
      <path d="M 56.08125 102.883524 
L 707.04 102.883524 
" clip-path="url(#p9d90ce2373)" style="fill: none; stroke: #cccccc; stroke-linecap: round"/>
     </g>
     <g id="text_15">
      <!-- 400 -->
      <g style="fill: #262626" transform="translate(28.230156 106.82032) scale(0.11 -0.11)">
       <use xlink:href="#ArialMT-34"/>
       <use xlink:href="#ArialMT-30" x="55.615234"/>
       <use xlink:href="#ArialMT-30" x="111.230469"/>
      </g>
     </g>
    </g>
    <g id="ytick_6">
     <g id="line2d_15">
      <path d="M 56.08125 68.633467 
L 707.04 68.633467 
" clip-path="url(#p9d90ce2373)" style="fill: none; stroke: #cccccc; stroke-linecap: round"/>
     </g>
     <g id="text_16">
      <!-- 500 -->
      <g style="fill: #262626" transform="translate(28.230156 72.570264) scale(0.11 -0.11)">
       <use xlink:href="#ArialMT-35"/>
       <use xlink:href="#ArialMT-30" x="55.615234"/>
       <use xlink:href="#ArialMT-30" x="111.230469"/>
      </g>
     </g>
    </g>
    <g id="ytick_7">
     <g id="line2d_16">
      <path d="M 56.08125 34.38341 
L 707.04 34.38341 
" clip-path="url(#p9d90ce2373)" style="fill: none; stroke: #cccccc; stroke-linecap: round"/>
     </g>
     <g id="text_17">
      <!-- 600 -->
      <g style="fill: #262626" transform="translate(28.230156 38.320207) scale(0.11 -0.11)">
       <defs>
        <path id="ArialMT-36" d="M 3184 3459 
L 2625 3416 
Q 2550 3747 2413 3897 
Q 2184 4138 1850 4138 
Q 1581 4138 1378 3988 
Q 1113 3794 959 3422 
Q 806 3050 800 2363 
Q 1003 2672 1297 2822 
Q 1591 2972 1913 2972 
Q 2475 2972 2870 2558 
Q 3266 2144 3266 1488 
Q 3266 1056 3080 686 
Q 2894 316 2569 119 
Q 2244 -78 1831 -78 
Q 1128 -78 684 439 
Q 241 956 241 2144 
Q 241 3472 731 4075 
Q 1159 4600 1884 4600 
Q 2425 4600 2770 4297 
Q 3116 3994 3184 3459 
z
M 888 1484 
Q 888 1194 1011 928 
Q 1134 663 1356 523 
Q 1578 384 1822 384 
Q 2178 384 2434 671 
Q 2691 959 2691 1453 
Q 2691 1928 2437 2201 
Q 2184 2475 1800 2475 
Q 1419 2475 1153 2201 
Q 888 1928 888 1484 
z
" transform="scale(0.015625)"/>
       </defs>
       <use xlink:href="#ArialMT-36"/>
       <use xlink:href="#ArialMT-30" x="55.615234"/>
       <use xlink:href="#ArialMT-30" x="111.230469"/>
      </g>
     </g>
    </g>
    <g id="text_18">
     <!-- Häufigkeit -->
     <g style="fill: #262626" transform="translate(21.704531 153.10125) rotate(-90) scale(0.12 -0.12)">
      <defs>
       <path id="ArialMT-48" d="M 513 0 
L 513 4581 
L 1119 4581 
L 1119 2700 
L 3500 2700 
L 3500 4581 
L 4106 4581 
L 4106 0 
L 3500 0 
L 3500 2159 
L 1119 2159 
L 1119 0 
L 513 0 
z
" transform="scale(0.015625)"/>
       <path id="ArialMT-e4" d="M 2588 409 
Q 2275 144 1986 34 
Q 1697 -75 1366 -75 
Q 819 -75 525 192 
Q 231 459 231 875 
Q 231 1119 342 1320 
Q 453 1522 633 1644 
Q 813 1766 1038 1828 
Q 1203 1872 1538 1913 
Q 2219 1994 2541 2106 
Q 2544 2222 2544 2253 
Q 2544 2597 2384 2738 
Q 2169 2928 1744 2928 
Q 1347 2928 1158 2789 
Q 969 2650 878 2297 
L 328 2372 
Q 403 2725 575 2942 
Q 747 3159 1072 3276 
Q 1397 3394 1825 3394 
Q 2250 3394 2515 3294 
Q 2781 3194 2906 3042 
Q 3031 2891 3081 2659 
Q 3109 2516 3109 2141 
L 3109 1391 
Q 3109 606 3145 398 
Q 3181 191 3288 0 
L 2700 0 
Q 2613 175 2588 409 
z
M 2541 1666 
Q 2234 1541 1622 1453 
Q 1275 1403 1131 1340 
Q 988 1278 909 1158 
Q 831 1038 831 891 
Q 831 666 1001 516 
Q 1172 366 1500 366 
Q 1825 366 2078 508 
Q 2331 650 2450 897 
Q 2541 1088 2541 1459 
L 2541 1666 
z
M 887 3969 
L 887 4609 
L 1474 4609 
L 1474 3969 
L 887 3969 
z
M 2052 3969 
L 2052 4609 
L 2640 4609 
L 2640 3969 
L 2052 3969 
z
" transform="scale(0.015625)"/>
       <path id="ArialMT-66" d="M 556 0 
L 556 2881 
L 59 2881 
L 59 3319 
L 556 3319 
L 556 3672 
Q 556 4006 616 4169 
Q 697 4388 901 4523 
Q 1106 4659 1475 4659 
Q 1713 4659 2000 4603 
L 1916 4113 
Q 1741 4144 1584 4144 
Q 1328 4144 1222 4034 
Q 1116 3925 1116 3625 
L 1116 3319 
L 1763 3319 
L 1763 2881 
L 1116 2881 
L 1116 0 
L 556 0 
z
" transform="scale(0.015625)"/>
       <path id="ArialMT-69" d="M 425 3934 
L 425 4581 
L 988 4581 
L 988 3934 
L 425 3934 
z
M 425 0 
L 425 3319 
L 988 3319 
L 988 0 
L 425 0 
z
" transform="scale(0.015625)"/>
       <path id="ArialMT-67" d="M 319 -275 
L 866 -356 
Q 900 -609 1056 -725 
Q 1266 -881 1628 -881 
Q 2019 -881 2231 -725 
Q 2444 -569 2519 -288 
Q 2563 -116 2559 434 
Q 2191 0 1641 0 
Q 956 0 581 494 
Q 206 988 206 1678 
Q 206 2153 378 2554 
Q 550 2956 876 3175 
Q 1203 3394 1644 3394 
Q 2231 3394 2613 2919 
L 2613 3319 
L 3131 3319 
L 3131 450 
Q 3131 -325 2973 -648 
Q 2816 -972 2473 -1159 
Q 2131 -1347 1631 -1347 
Q 1038 -1347 672 -1080 
Q 306 -813 319 -275 
z
M 784 1719 
Q 784 1066 1043 766 
Q 1303 466 1694 466 
Q 2081 466 2343 764 
Q 2606 1063 2606 1700 
Q 2606 2309 2336 2618 
Q 2066 2928 1684 2928 
Q 1309 2928 1046 2623 
Q 784 2319 784 1719 
z
" transform="scale(0.015625)"/>
       <path id="ArialMT-65" d="M 2694 1069 
L 3275 997 
Q 3138 488 2766 206 
Q 2394 -75 1816 -75 
Q 1088 -75 661 373 
Q 234 822 234 1631 
Q 234 2469 665 2931 
Q 1097 3394 1784 3394 
Q 2450 3394 2872 2941 
Q 3294 2488 3294 1666 
Q 3294 1616 3291 1516 
L 816 1516 
Q 847 969 1125 678 
Q 1403 388 1819 388 
Q 2128 388 2347 550 
Q 2566 713 2694 1069 
z
M 847 1978 
L 2700 1978 
Q 2663 2397 2488 2606 
Q 2219 2931 1791 2931 
Q 1403 2931 1139 2672 
Q 875 2413 847 1978 
z
" transform="scale(0.015625)"/>
      </defs>
      <use xlink:href="#ArialMT-48"/>
      <use xlink:href="#ArialMT-e4" x="72.216797"/>
      <use xlink:href="#ArialMT-75" x="127.832031"/>
      <use xlink:href="#ArialMT-66" x="183.447266"/>
      <use xlink:href="#ArialMT-69" x="211.230469"/>
      <use xlink:href="#ArialMT-67" x="233.447266"/>
      <use xlink:href="#ArialMT-6b" x="289.0625"/>
      <use xlink:href="#ArialMT-65" x="339.0625"/>
      <use xlink:href="#ArialMT-69" x="394.677734"/>
      <use xlink:href="#ArialMT-74" x="416.894531"/>
     </g>
    </g>
   </g>
   <g id="patch_3">
    <path d="M 56.08125 239.88375 
L 70.232527 239.88375 
L 70.232527 237.486246 
L 56.08125 237.486246 
z
" clip-path="url(#p9d90ce2373)" style="fill: #ff8c00; fill-opacity: 0.5; stroke: #ffffff; stroke-linejoin: miter"/>
   </g>
   <g id="patch_4">
    <path d="M 70.232527 239.88375 
L 84.383804 239.88375 
L 84.383804 239.541249 
L 70.232527 239.541249 
z
" clip-path="url(#p9d90ce2373)" style="fill: #ff8c00; fill-opacity: 0.5; stroke: #ffffff; stroke-linejoin: miter"/>
   </g>
   <g id="patch_5">
    <path d="M 84.383804 239.88375 
L 98.535082 239.88375 
L 98.535082 237.143745 
L 84.383804 237.143745 
z
" clip-path="url(#p9d90ce2373)" style="fill: #ff8c00; fill-opacity: 0.5; stroke: #ffffff; stroke-linejoin: miter"/>
   </g>
   <g id="patch_6">
    <path d="M 98.535082 239.88375 
L 112.686359 239.88375 
L 112.686359 239.198749 
L 98.535082 239.198749 
z
" clip-path="url(#p9d90ce2373)" style="fill: #ff8c00; fill-opacity: 0.5; stroke: #ffffff; stroke-linejoin: miter"/>
   </g>
   <g id="patch_7">
    <path d="M 112.686359 239.88375 
L 126.837636 239.88375 
L 126.837636 234.746242 
L 112.686359 234.746242 
z
" clip-path="url(#p9d90ce2373)" style="fill: #ff8c00; fill-opacity: 0.5; stroke: #ffffff; stroke-linejoin: miter"/>
   </g>
   <g id="patch_8">
    <path d="M 126.837636 239.88375 
L 140.988913 239.88375 
L 140.988913 230.636235 
L 126.837636 230.636235 
z
" clip-path="url(#p9d90ce2373)" style="fill: #ff8c00; fill-opacity: 0.5; stroke: #ffffff; stroke-linejoin: miter"/>
   </g>
   <g id="patch_9">
    <path d="M 140.988913 239.88375 
L 155.14019 239.88375 
L 155.14019 231.663736 
L 140.988913 231.663736 
z
" clip-path="url(#p9d90ce2373)" style="fill: #ff8c00; fill-opacity: 0.5; stroke: #ffffff; stroke-linejoin: miter"/>
   </g>
   <g id="patch_10">
    <path d="M 155.14019 239.88375 
L 169.291467 239.88375 
L 169.291467 230.978735 
L 155.14019 230.978735 
z
" clip-path="url(#p9d90ce2373)" style="fill: #ff8c00; fill-opacity: 0.5; stroke: #ffffff; stroke-linejoin: miter"/>
   </g>
   <g id="patch_11">
    <path d="M 169.291467 239.88375 
L 183.442745 239.88375 
L 183.442745 229.951234 
L 169.291467 229.951234 
z
" clip-path="url(#p9d90ce2373)" style="fill: #ff8c00; fill-opacity: 0.5; stroke: #ffffff; stroke-linejoin: miter"/>
   </g>
   <g id="patch_12">
    <path d="M 183.442745 239.88375 
L 197.594022 239.88375 
L 197.594022 230.293734 
L 183.442745 230.293734 
z
" clip-path="url(#p9d90ce2373)" style="fill: #ff8c00; fill-opacity: 0.5; stroke: #ffffff; stroke-linejoin: miter"/>
   </g>
   <g id="patch_13">
    <path d="M 197.594022 239.88375 
L 211.745299 239.88375 
L 211.745299 227.55373 
L 197.594022 227.55373 
z
" clip-path="url(#p9d90ce2373)" style="fill: #ff8c00; fill-opacity: 0.5; stroke: #ffffff; stroke-linejoin: miter"/>
   </g>
   <g id="patch_14">
    <path d="M 211.745299 239.88375 
L 225.896576 239.88375 
L 225.896576 224.471225 
L 211.745299 224.471225 
z
" clip-path="url(#p9d90ce2373)" style="fill: #ff8c00; fill-opacity: 0.5; stroke: #ffffff; stroke-linejoin: miter"/>
   </g>
   <g id="patch_15">
    <path d="M 225.896576 239.88375 
L 240.047853 239.88375 
L 240.047853 220.018717 
L 225.896576 220.018717 
z
" clip-path="url(#p9d90ce2373)" style="fill: #ff8c00; fill-opacity: 0.5; stroke: #ffffff; stroke-linejoin: miter"/>
   </g>
   <g id="patch_16">
    <path d="M 240.047853 239.88375 
L 254.19913 239.88375 
L 254.19913 217.963714 
L 240.047853 217.963714 
z
" clip-path="url(#p9d90ce2373)" style="fill: #ff8c00; fill-opacity: 0.5; stroke: #ffffff; stroke-linejoin: miter"/>
   </g>
   <g id="patch_17">
    <path d="M 254.19913 239.88375 
L 268.350408 239.88375 
L 268.350408 207.688697 
L 254.19913 207.688697 
z
" clip-path="url(#p9d90ce2373)" style="fill: #ff8c00; fill-opacity: 0.5; stroke: #ffffff; stroke-linejoin: miter"/>
   </g>
   <g id="patch_18">
    <path d="M 268.350408 239.88375 
L 282.501685 239.88375 
L 282.501685 202.551188 
L 268.350408 202.551188 
z
" clip-path="url(#p9d90ce2373)" style="fill: #ff8c00; fill-opacity: 0.5; stroke: #ffffff; stroke-linejoin: miter"/>
   </g>
   <g id="patch_19">
    <path d="M 282.501685 239.88375 
L 296.652962 239.88375 
L 296.652962 198.783682 
L 282.501685 198.783682 
z
" clip-path="url(#p9d90ce2373)" style="fill: #ff8c00; fill-opacity: 0.5; stroke: #ffffff; stroke-linejoin: miter"/>
   </g>
   <g id="patch_20">
    <path d="M 296.652962 239.88375 
L 310.804239 239.88375 
L 310.804239 205.291193 
L 296.652962 205.291193 
z
" clip-path="url(#p9d90ce2373)" style="fill: #ff8c00; fill-opacity: 0.5; stroke: #ffffff; stroke-linejoin: miter"/>
   </g>
   <g id="patch_21">
    <path d="M 310.804239 239.88375 
L 324.955516 239.88375 
L 324.955516 211.113702 
L 310.804239 211.113702 
z
" clip-path="url(#p9d90ce2373)" style="fill: #ff8c00; fill-opacity: 0.5; stroke: #ffffff; stroke-linejoin: miter"/>
   </g>
   <g id="patch_22">
    <path d="M 324.955516 239.88375 
L 339.106793 239.88375 
L 339.106793 199.468683 
L 324.955516 199.468683 
z
" clip-path="url(#p9d90ce2373)" style="fill: #ff8c00; fill-opacity: 0.5; stroke: #ffffff; stroke-linejoin: miter"/>
   </g>
   <g id="patch_23">
    <path d="M 339.106793 239.88375 
L 353.258071 239.88375 
L 353.258071 198.783682 
L 339.106793 198.783682 
z
" clip-path="url(#p9d90ce2373)" style="fill: #ff8c00; fill-opacity: 0.5; stroke: #ffffff; stroke-linejoin: miter"/>
   </g>
   <g id="patch_24">
    <path d="M 353.258071 239.88375 
L 367.409348 239.88375 
L 367.409348 195.358676 
L 353.258071 195.358676 
z
" clip-path="url(#p9d90ce2373)" style="fill: #ff8c00; fill-opacity: 0.5; stroke: #ffffff; stroke-linejoin: miter"/>
   </g>
   <g id="patch_25">
    <path d="M 367.409348 239.88375 
L 381.560625 239.88375 
L 381.560625 180.973653 
L 367.409348 180.973653 
z
" clip-path="url(#p9d90ce2373)" style="fill: #ff8c00; fill-opacity: 0.5; stroke: #ffffff; stroke-linejoin: miter"/>
   </g>
   <g id="patch_26">
    <path d="M 381.560625 239.88375 
L 395.711902 239.88375 
L 395.711902 168.301132 
L 381.560625 168.301132 
z
" clip-path="url(#p9d90ce2373)" style="fill: #ff8c00; fill-opacity: 0.5; stroke: #ffffff; stroke-linejoin: miter"/>
   </g>
   <g id="patch_27">
    <path d="M 395.711902 239.88375 
L 409.863179 239.88375 
L 409.863179 134.736076 
L 395.711902 134.736076 
z
" clip-path="url(#p9d90ce2373)" style="fill: #ff8c00; fill-opacity: 0.5; stroke: #ffffff; stroke-linejoin: miter"/>
   </g>
   <g id="patch_28">
    <path d="M 409.863179 239.88375 
L 424.014457 239.88375 
L 424.014457 125.488561 
L 409.863179 125.488561 
z
" clip-path="url(#p9d90ce2373)" style="fill: #ff8c00; fill-opacity: 0.5; stroke: #ffffff; stroke-linejoin: miter"/>
   </g>
   <g id="patch_29">
    <path d="M 424.014457 239.88375 
L 438.165734 239.88375 
L 438.165734 115.556045 
L 424.014457 115.556045 
z
" clip-path="url(#p9d90ce2373)" style="fill: #ff8c00; fill-opacity: 0.5; stroke: #ffffff; stroke-linejoin: miter"/>
   </g>
   <g id="patch_30">
    <path d="M 438.165734 239.88375 
L 452.317011 239.88375 
L 452.317011 116.926047 
L 438.165734 116.926047 
z
" clip-path="url(#p9d90ce2373)" style="fill: #ff8c00; fill-opacity: 0.5; stroke: #ffffff; stroke-linejoin: miter"/>
   </g>
   <g id="patch_31">
    <path d="M 452.317011 239.88375 
L 466.468288 239.88375 
L 466.468288 111.788538 
L 452.317011 111.788538 
z
" clip-path="url(#p9d90ce2373)" style="fill: #ff8c00; fill-opacity: 0.5; stroke: #ffffff; stroke-linejoin: miter"/>
   </g>
   <g id="patch_32">
    <path d="M 466.468288 239.88375 
L 480.619565 239.88375 
L 480.619565 104.938527 
L 466.468288 104.938527 
z
" clip-path="url(#p9d90ce2373)" style="fill: #ff8c00; fill-opacity: 0.5; stroke: #ffffff; stroke-linejoin: miter"/>
   </g>
   <g id="patch_33">
    <path d="M 480.619565 239.88375 
L 494.770842 239.88375 
L 494.770842 111.446038 
L 480.619565 111.446038 
z
" clip-path="url(#p9d90ce2373)" style="fill: #ff8c00; fill-opacity: 0.5; stroke: #ffffff; stroke-linejoin: miter"/>
   </g>
   <g id="patch_34">
    <path d="M 494.770842 239.88375 
L 508.92212 239.88375 
L 508.92212 92.951007 
L 494.770842 92.951007 
z
" clip-path="url(#p9d90ce2373)" style="fill: #ff8c00; fill-opacity: 0.5; stroke: #ffffff; stroke-linejoin: miter"/>
   </g>
   <g id="patch_35">
    <path d="M 508.92212 239.88375 
L 523.073397 239.88375 
L 523.073397 65.550962 
L 508.92212 65.550962 
z
" clip-path="url(#p9d90ce2373)" style="fill: #ff8c00; fill-opacity: 0.5; stroke: #ffffff; stroke-linejoin: miter"/>
   </g>
   <g id="patch_36">
    <path d="M 523.073397 239.88375 
L 537.224674 239.88375 
L 537.224674 62.810957 
L 523.073397 62.810957 
z
" clip-path="url(#p9d90ce2373)" style="fill: #ff8c00; fill-opacity: 0.5; stroke: #ffffff; stroke-linejoin: miter"/>
   </g>
   <g id="patch_37">
    <path d="M 537.224674 239.88375 
L 551.375951 239.88375 
L 551.375951 61.098455 
L 537.224674 61.098455 
z
" clip-path="url(#p9d90ce2373)" style="fill: #ff8c00; fill-opacity: 0.5; stroke: #ffffff; stroke-linejoin: miter"/>
   </g>
   <g id="patch_38">
    <path d="M 551.375951 239.88375 
L 565.527228 239.88375 
L 565.527228 51.165938 
L 551.375951 51.165938 
z
" clip-path="url(#p9d90ce2373)" style="fill: #ff8c00; fill-opacity: 0.5; stroke: #ffffff; stroke-linejoin: miter"/>
   </g>
   <g id="patch_39">
    <path d="M 565.527228 239.88375 
L 579.678505 239.88375 
L 579.678505 42.260923 
L 565.527228 42.260923 
z
" clip-path="url(#p9d90ce2373)" style="fill: #ff8c00; fill-opacity: 0.5; stroke: #ffffff; stroke-linejoin: miter"/>
   </g>
   <g id="patch_40">
    <path d="M 579.678505 239.88375 
L 593.829783 239.88375 
L 593.829783 23.765893 
L 579.678505 23.765893 
z
" clip-path="url(#p9d90ce2373)" style="fill: #ff8c00; fill-opacity: 0.5; stroke: #ffffff; stroke-linejoin: miter"/>
   </g>
   <g id="patch_41">
    <path d="M 593.829783 239.88375 
L 607.98106 239.88375 
L 607.98106 26.505897 
L 593.829783 26.505897 
z
" clip-path="url(#p9d90ce2373)" style="fill: #ff8c00; fill-opacity: 0.5; stroke: #ffffff; stroke-linejoin: miter"/>
   </g>
   <g id="patch_42">
    <path d="M 607.98106 239.88375 
L 622.132337 239.88375 
L 622.132337 46.713431 
L 607.98106 46.713431 
z
" clip-path="url(#p9d90ce2373)" style="fill: #ff8c00; fill-opacity: 0.5; stroke: #ffffff; stroke-linejoin: miter"/>
   </g>
   <g id="patch_43">
    <path d="M 622.132337 239.88375 
L 636.283614 239.88375 
L 636.283614 85.758495 
L 622.132337 85.758495 
z
" clip-path="url(#p9d90ce2373)" style="fill: #ff8c00; fill-opacity: 0.5; stroke: #ffffff; stroke-linejoin: miter"/>
   </g>
   <g id="patch_44">
    <path d="M 636.283614 239.88375 
L 650.434891 239.88375 
L 650.434891 151.861105 
L 636.283614 151.861105 
z
" clip-path="url(#p9d90ce2373)" style="fill: #ff8c00; fill-opacity: 0.5; stroke: #ffffff; stroke-linejoin: miter"/>
   </g>
   <g id="patch_45">
    <path d="M 650.434891 239.88375 
L 664.586168 239.88375 
L 664.586168 188.851166 
L 650.434891 188.851166 
z
" clip-path="url(#p9d90ce2373)" style="fill: #ff8c00; fill-opacity: 0.5; stroke: #ffffff; stroke-linejoin: miter"/>
   </g>
   <g id="patch_46">
    <path d="M 664.586168 239.88375 
L 678.737446 239.88375 
L 678.737446 218.306214 
L 664.586168 218.306214 
z
" clip-path="url(#p9d90ce2373)" style="fill: #ff8c00; fill-opacity: 0.5; stroke: #ffffff; stroke-linejoin: miter"/>
   </g>
   <g id="patch_47">
    <path d="M 678.737446 239.88375 
L 692.888723 239.88375 
L 692.888723 234.746242 
L 678.737446 234.746242 
z
" clip-path="url(#p9d90ce2373)" style="fill: #ff8c00; fill-opacity: 0.5; stroke: #ffffff; stroke-linejoin: miter"/>
   </g>
   <g id="patch_48">
    <path d="M 692.888723 239.88375 
L 707.04 239.88375 
L 707.04 236.458744 
L 692.888723 236.458744 
z
" clip-path="url(#p9d90ce2373)" style="fill: #ff8c00; fill-opacity: 0.5; stroke: #ffffff; stroke-linejoin: miter"/>
   </g>
   <g id="line2d_17">
    <path d="M 56.08125 239.00166 
L 72.436997 238.42895 
L 95.335044 237.777998 
L 101.877343 237.325424 
L 108.419642 236.619967 
L 114.961941 235.672216 
L 134.588838 232.549233 
L 141.131137 231.842002 
L 147.673436 231.36784 
L 157.486884 230.956446 
L 177.113781 230.30132 
L 183.65608 229.902919 
L 190.198379 229.303705 
L 196.740678 228.446242 
L 203.282977 227.311871 
L 209.825276 225.936195 
L 219.638725 223.583148 
L 229.452173 221.010729 
L 235.994472 219.094036 
L 242.536771 216.892097 
L 249.07907 214.357514 
L 265.434818 207.500818 
L 268.705967 206.322761 
L 271.977117 205.298888 
L 275.248266 204.458401 
L 278.519416 203.821244 
L 281.790565 203.396273 
L 285.061715 203.179991 
L 288.332864 203.156 
L 291.604014 203.295355 
L 298.146313 203.895513 
L 304.688612 204.58209 
L 307.959761 204.828952 
L 311.230911 204.955084 
L 314.50206 204.932012 
L 317.77321 204.744213 
L 321.044359 204.388477 
L 324.315509 203.871523 
L 327.586658 203.206387 
L 330.857808 202.408265 
L 337.400107 200.461868 
L 343.942406 198.070958 
L 347.213555 196.690831 
L 350.484705 195.16604 
L 353.755854 193.476116 
L 357.027004 191.599802 
L 360.298153 189.517066 
L 363.569303 187.210653 
L 366.840452 184.667127 
L 370.111602 181.877495 
L 373.382751 178.837705 
L 376.653901 175.549322 
L 379.92505 172.020671 
L 383.1962 168.26851 
L 389.738499 160.214559 
L 402.823097 143.446357 
L 406.094246 139.548198 
L 409.365396 135.921823 
L 412.636545 132.627519 
L 415.907695 129.706405 
L 419.178844 127.176675 
L 422.449994 125.032145 
L 425.721143 123.243268 
L 428.992293 121.76049 
L 432.263442 120.519561 
L 438.805741 118.473493 
L 448.61919 115.531882 
L 455.161489 113.240302 
L 464.974937 109.406162 
L 478.059535 104.171238 
L 481.330685 102.738766 
L 484.601834 101.162623 
L 487.872984 99.391361 
L 491.144133 97.38664 
L 494.415283 95.131725 
L 497.686432 92.636461 
L 500.957582 89.937641 
L 517.313329 75.754852 
L 520.584479 73.229592 
L 523.855628 70.882525 
L 527.126778 68.701678 
L 533.669077 64.708988 
L 546.753675 57.037078 
L 553.295974 52.909967 
L 569.651721 42.16349 
L 572.922871 40.214742 
L 576.19402 38.456798 
L 579.46517 36.960879 
L 582.736319 35.806583 
L 586.007469 35.079929 
L 589.278618 34.870445 
L 592.549768 35.267648 
L 595.820917 36.357288 
L 599.092067 38.217694 
L 602.363216 40.916326 
L 605.634366 44.506479 
L 608.905515 49.023993 
L 612.176665 54.483839 
L 615.447814 60.876678 
L 618.718964 68.165746 
L 621.990113 76.284681 
L 625.261263 85.137052 
L 628.532412 94.59827 
L 635.074711 114.738737 
L 644.88816 145.487491 
L 648.159309 155.25886 
L 651.430459 164.588604 
L 654.701608 173.39413 
L 657.972758 181.618154 
L 661.243907 189.225114 
L 664.515057 196.196633 
L 667.786206 202.527182 
L 671.057356 208.220797 
L 674.328505 213.289214 
L 677.599655 217.751284 
L 680.870804 221.633141 
L 684.141954 224.968464 
L 687.413103 227.798231 
L 690.684253 230.169621 
L 693.955402 232.134078 
L 697.226552 233.744771 
L 700.497701 235.053924 
L 703.768851 236.110435 
L 707.04 236.958151 
L 707.04 236.958151 
" clip-path="url(#p9d90ce2373)" style="fill: none; stroke: #ff8c00; stroke-width: 1.5; stroke-linecap: round"/>
   </g>
   <g id="patch_49">
    <path d="M 56.08125 239.88375 
L 56.08125 12.96 
" style="fill: none; stroke: #cccccc; stroke-width: 1.25; stroke-linejoin: miter; stroke-linecap: square"/>
   </g>
   <g id="patch_50">
    <path d="M 707.04 239.88375 
L 707.04 12.96 
" style="fill: none; stroke: #cccccc; stroke-width: 1.25; stroke-linejoin: miter; stroke-linecap: square"/>
   </g>
   <g id="patch_51">
    <path d="M 56.08125 239.88375 
L 707.04 239.88375 
" style="fill: none; stroke: #cccccc; stroke-width: 1.25; stroke-linejoin: miter; stroke-linecap: square"/>
   </g>
   <g id="patch_52">
    <path d="M 56.08125 12.96 
L 707.04 12.96 
" style="fill: none; stroke: #cccccc; stroke-width: 1.25; stroke-linejoin: miter; stroke-linecap: square"/>
   </g>
   <g id="legend_1">
    <g id="patch_53">
     <path d="M 63.78125 37.319844 
L 133.832344 37.319844 
Q 136.032344 37.319844 136.032344 35.119844 
L 136.032344 20.66 
Q 136.032344 18.46 133.832344 18.46 
L 63.78125 18.46 
Q 61.58125 18.46 61.58125 20.66 
L 61.58125 35.119844 
Q 61.58125 37.319844 63.78125 37.319844 
z
" style="fill: #ffffff; opacity: 0.8; stroke: #cccccc; stroke-linejoin: miter"/>
    </g>
    <g id="patch_54">
     <path d="M 65.98125 30.733594 
L 87.98125 30.733594 
L 87.98125 23.033594 
L 65.98125 23.033594 
z
" style="fill: #ff8c00; fill-opacity: 0.5; stroke: #ffffff; stroke-linejoin: miter"/>
    </g>
    <g id="text_19">
     <!-- Quiche -->
     <g style="fill: #262626" transform="translate(96.78125 30.733594) scale(0.11 -0.11)">
      <defs>
       <path id="ArialMT-51" d="M 3966 491 
Q 4388 200 4744 66 
L 4566 -356 
Q 4072 -178 3581 206 
Q 3072 -78 2456 -78 
Q 1834 -78 1328 222 
Q 822 522 548 1065 
Q 275 1609 275 2291 
Q 275 2969 550 3525 
Q 825 4081 1333 4372 
Q 1841 4663 2469 4663 
Q 3103 4663 3612 4361 
Q 4122 4059 4389 3517 
Q 4656 2975 4656 2294 
Q 4656 1728 4484 1276 
Q 4313 825 3966 491 
z
M 2631 1266 
Q 3156 1119 3497 828 
Q 4031 1316 4031 2294 
Q 4031 2850 3842 3265 
Q 3653 3681 3289 3911 
Q 2925 4141 2472 4141 
Q 1794 4141 1347 3677 
Q 900 3213 900 2291 
Q 900 1397 1342 919 
Q 1784 441 2472 441 
Q 2797 441 3084 563 
Q 2800 747 2484 825 
L 2631 1266 
z
" transform="scale(0.015625)"/>
       <path id="ArialMT-63" d="M 2588 1216 
L 3141 1144 
Q 3050 572 2676 248 
Q 2303 -75 1759 -75 
Q 1078 -75 664 370 
Q 250 816 250 1647 
Q 250 2184 428 2587 
Q 606 2991 970 3192 
Q 1334 3394 1763 3394 
Q 2303 3394 2647 3120 
Q 2991 2847 3088 2344 
L 2541 2259 
Q 2463 2594 2264 2762 
Q 2066 2931 1784 2931 
Q 1359 2931 1093 2626 
Q 828 2322 828 1663 
Q 828 994 1084 691 
Q 1341 388 1753 388 
Q 2084 388 2306 591 
Q 2528 794 2588 1216 
z
" transform="scale(0.015625)"/>
       <path id="ArialMT-68" d="M 422 0 
L 422 4581 
L 984 4581 
L 984 2938 
Q 1378 3394 1978 3394 
Q 2347 3394 2619 3248 
Q 2891 3103 3008 2847 
Q 3125 2591 3125 2103 
L 3125 0 
L 2563 0 
L 2563 2103 
Q 2563 2525 2380 2717 
Q 2197 2909 1863 2909 
Q 1613 2909 1392 2779 
Q 1172 2650 1078 2428 
Q 984 2206 984 1816 
L 984 0 
L 422 0 
z
" transform="scale(0.015625)"/>
      </defs>
      <use xlink:href="#ArialMT-51"/>
      <use xlink:href="#ArialMT-75" x="77.783203"/>
      <use xlink:href="#ArialMT-69" x="133.398438"/>
      <use xlink:href="#ArialMT-63" x="155.615234"/>
      <use xlink:href="#ArialMT-68" x="205.615234"/>
      <use xlink:href="#ArialMT-65" x="261.230469"/>
     </g>
    </g>
   </g>
  </g>
 </g>
 <defs>
  <clipPath id="p9d90ce2373">
   <rect x="56.08125" y="12.96" width="650.95875" height="226.92375"/>
  </clipPath>
 </defs>
</svg>
